<svg width="80" height="80" viewBox="0 0 80 80" fill="none" xmlns="http://www.w3.org/2000/svg">
<path fill-rule="evenodd" clip-rule="evenodd" d="M80 40C80 62.0914 62.0914 80 40 80C17.9086 80 0 62.0914 0 40C0 17.9086 17.9086 0 40 0C62.0914 0 80 17.9086 80 40ZM20.3008 54V25.5625H29.5977C32.6836 25.5625 35.0013 26.2005 36.5508 27.4766C38.1133 28.7526 38.8945 30.6406 38.8945 33.1406C38.8945 34.4688 38.5169 35.6471 37.7617 36.6758C37.0065 37.6914 35.9779 38.4792 34.6758 39.0391C36.2122 39.4688 37.4232 40.2891 38.3086 41.5C39.207 42.6979 39.6562 44.1302 39.6562 45.7969C39.6562 48.349 38.8294 50.3542 37.1758 51.8125C35.5221 53.2708 33.1849 54 30.1641 54H20.3008ZM24.0508 40.6992V50.9336H30.2422C31.987 50.9336 33.3607 50.4844 34.3633 49.5859C35.3789 48.6745 35.8867 47.4245 35.8867 45.8359C35.8867 42.4115 34.0247 40.6992 30.3008 40.6992H24.0508ZM24.0508 37.6914H29.7148C31.3555 37.6914 32.6641 37.2812 33.6406 36.4609C34.6302 35.6406 35.125 34.5273 35.125 33.1211C35.125 31.5586 34.6693 30.4258 33.7578 29.7227C32.8464 29.0065 31.4596 28.6484 29.5977 28.6484H24.0508V37.6914ZM53.4258 54.3906C50.5612 54.3906 48.2305 53.4531 46.4336 51.5781C44.6367 49.6901 43.7383 47.1706 43.7383 44.0195V43.3555C43.7383 41.2591 44.1354 39.3906 44.9297 37.75C45.737 36.0964 46.8568 34.8073 48.2891 33.8828C49.7344 32.9453 51.2969 32.4766 52.9766 32.4766C55.724 32.4766 57.8594 33.3815 59.3828 35.1914C60.9062 37.0013 61.668 39.5924 61.668 42.9648V44.4688H47.3516C47.4036 46.5521 48.0091 48.2383 49.168 49.5273C50.3398 50.8034 51.8242 51.4414 53.6211 51.4414C54.8971 51.4414 55.9779 51.181 56.8633 50.6602C57.7487 50.1393 58.5234 49.4492 59.1875 48.5898L61.3945 50.3086C59.6237 53.0299 56.9674 54.3906 53.4258 54.3906ZM52.9766 35.4453C51.5182 35.4453 50.2943 35.9792 49.3047 37.0469C48.3151 38.1016 47.7031 39.5859 47.4688 41.5H58.0547V41.2266C57.9505 39.3906 57.4557 37.9714 56.5703 36.9688C55.6849 35.9531 54.487 35.4453 52.9766 35.4453ZM44 28.5H61V25.5H44V28.5Z" fill="white"/>
</svg>
