<svg width="374" height="374" viewBox="0 0 374 374" fill="none" xmlns="http://www.w3.org/2000/svg">
<path fill-rule="evenodd" clip-rule="evenodd" d="M18.1336 230.266C-5.68841 206.444 -5.6884 167.821 18.1336 143.999L143.999 18.1335C167.821 -5.68844 206.444 -5.68843 230.266 18.1335L356.131 143.999C379.953 167.821 379.953 206.444 356.131 230.266L230.266 356.131C206.444 379.953 167.821 379.953 143.999 356.131L18.1336 230.266ZM159.066 264.617C159.066 263.236 160.185 262.117 161.566 262.117H210.566C211.946 262.117 213.066 263.236 213.066 264.617C213.066 265.997 211.946 267.117 210.566 267.117H161.566C160.185 267.117 159.066 265.997 159.066 264.617ZM169.566 278.117C168.185 278.117 167.066 279.236 167.066 280.617C167.066 281.997 168.185 283.117 169.566 283.117H202.566C203.946 283.117 205.066 281.997 205.066 280.617C205.066 279.236 203.946 278.117 202.566 278.117H169.566ZM176.066 297.617C176.066 296.236 177.185 295.117 178.566 295.117H192.566C193.946 295.117 195.066 296.236 195.066 297.617C195.066 298.997 193.946 300.117 192.566 300.117H178.566C177.185 300.117 176.066 298.997 176.066 297.617ZM139.29 220.519C110.202 198.441 99.3849 158.358 115.445 123.916C133.946 84.2417 181.106 67.0767 220.781 85.5774C260.456 104.078 277.621 151.238 259.12 190.913C253.21 203.587 244.375 213.964 233.794 221.616L210.354 252.617H161.211L139.29 220.519ZM226.207 164.634C226.207 186.522 208.463 204.266 186.575 204.266C164.687 204.266 146.943 186.522 146.943 164.634C146.943 142.746 164.687 125.002 186.575 125.002C208.463 125.002 226.207 142.746 226.207 164.634Z" fill="#25B6BF"/>
</svg>
