<svg width="376" height="376" viewBox="0 0 376 376" fill="none" xmlns="http://www.w3.org/2000/svg">
<path fill-rule="evenodd" clip-rule="evenodd" d="M18.4265 230.558C-5.00499 207.127 -5.00499 169.137 18.4265 145.706L145.706 18.4264C169.137 -5.00505 207.127 -5.00505 230.559 18.4264L357.838 145.706C381.269 169.137 381.269 207.127 357.838 230.558L230.559 357.838C207.127 381.269 169.137 381.269 145.706 357.838L18.4265 230.558ZM165.727 249.009C165.727 247.628 166.846 246.509 168.227 246.509H206.854C208.235 246.509 209.354 247.628 209.354 249.009C209.354 250.39 208.235 251.509 206.854 251.509H168.227C166.846 251.509 165.727 250.39 165.727 249.009ZM174.533 259.122C173.153 259.122 172.033 260.241 172.033 261.622C172.033 263.003 173.153 264.122 174.533 264.122H200.548C201.928 264.122 203.048 263.003 203.048 261.622C203.048 260.241 201.928 259.122 200.548 259.122H174.533ZM179.128 275.023C179.128 273.643 180.247 272.523 181.628 272.523H192.665C194.045 272.523 195.165 273.643 195.165 275.023C195.165 276.404 194.045 277.523 192.665 277.523H181.628C180.247 277.523 179.128 276.404 179.128 275.023ZM150.667 214.246C127.736 196.842 119.209 165.244 131.869 138.093C146.454 106.816 183.631 93.2849 214.907 107.869C246.184 122.454 259.715 159.631 245.131 190.907C240.472 200.899 233.507 209.079 225.166 215.11L206.688 239.549H167.947L150.667 214.246ZM219.185 170.191C219.185 187.446 205.197 201.433 187.942 201.433C170.687 201.433 156.7 187.446 156.7 170.191C156.7 152.936 170.687 138.948 187.942 138.948C205.197 138.948 219.185 152.936 219.185 170.191Z" fill="#25B6BF"/>
</svg>
