<svg width="376" height="376" viewBox="0 0 376 376" fill="none" xmlns="http://www.w3.org/2000/svg">
<path fill-rule="evenodd" clip-rule="evenodd" d="M18.4264 145.574C-5.00505 169.005 -5.00505 206.995 18.4264 230.426L145.706 357.706C169.137 381.137 207.127 381.137 230.558 357.706L357.838 230.426C381.269 206.995 381.269 169.005 357.838 145.574L230.558 18.2944C207.127 -5.1371 169.137 -5.1371 145.706 18.2944L18.4264 145.574ZM125.973 216H100.281C100.281 211.882 100.571 207.779 101.145 203.719C102.176 196.423 104.125 189.269 106.958 182.431C111.366 171.789 117.828 162.119 125.973 153.973C134.119 145.828 143.789 139.366 154.431 134.958C165.074 130.55 176.481 128.281 188 128.281C199.519 128.281 210.926 130.55 221.569 134.958C222.62 135.394 223.662 135.849 224.694 136.324L229 125C226.715 123.84 226.268 123.612 226.268 123.612C214.136 118.587 201.132 116 188 116C174.868 116 161.864 118.587 149.732 123.612C137.599 128.638 126.575 136.003 117.289 145.289C108.003 154.575 100.638 165.599 95.612 177.732C90.5866 189.864 88 202.868 88 216V228.281H125.973C125.092 225.805 125.41 223.201 125.717 220.688C125.915 219.068 126.109 217.486 125.973 216ZM275.719 216L274.855 233.982H288V216C288 202.868 285.413 189.864 280.388 177.732C275.362 165.599 267.997 154.575 258.711 145.289C254.74 141.318 252.645 139.56 248.088 136.324L243.702 148.895C244.714 149.657 245.428 150.156 246.017 150.567L246.017 150.567C247.328 151.483 248.022 151.968 250.027 153.973C258.172 162.119 264.634 171.789 269.042 182.431C271.875 189.269 273.824 196.423 274.855 203.719C275.429 207.779 275.719 211.882 275.719 216ZM169.579 198.456L240.901 129.098L204.228 219.07C183.325 227.125 168.263 216 169.579 198.456Z" fill="#25B6BF"/>
</svg>
