<svg width="500" height="431" viewBox="0 0 500 431" fill="none" xmlns="http://www.w3.org/2000/svg">
<path opacity="0.1" d="M455.801 233.422C436.374 266.548 439.021 311.09 446.587 346.089C449.116 357.807 452.059 370.149 449.438 383.398C446.234 399.574 435.463 412.449 424.667 419.902C404.989 433.494 382.823 433.591 366.953 420.158C353.239 408.548 344.465 387.99 330.443 377.019C306.982 358.667 274.092 370.784 245.358 389.003C225.03 401.893 202.623 418.157 184.245 409.608C171.315 403.593 163.523 386.014 160.104 366.776C158.45 357.49 157.544 347.323 153.474 340.305C151.053 336.133 147.669 333.379 144.152 331.136C112.019 310.66 67.6414 329.288 36.7269 306.012C15.8458 290.291 4.44548 257.165 1.18458 221.545C-2.07632 185.926 1.92686 147.661 6.74398 109.948C10.1687 83.1594 14.6582 54.4563 28.1113 32.4389C42.3426 9.14672 64.273 -1.58303 83.1115 0.188198C101.95 1.95943 118.096 14.5218 131.923 29.9714C149.2 49.2911 164.639 74.0985 187.373 79.9702C202.859 83.9683 219.962 78.6034 236.558 75.4193C264.299 70.0954 291.533 70.8837 318.567 72.0918C344.449 73.2488 370.48 74.8255 394.433 84.1474C411.382 90.746 424.211 104.952 439.993 114.033C450.267 119.951 461.98 120.483 471.502 128.464C483.235 138.298 493.192 156.696 487.955 180.321C482.974 202.799 466.132 215.838 455.801 233.422Z" fill="#04C2C9"/>
<path d="M83.3368 337.858C83.3368 337.858 49.1818 281.286 58.7648 230.524C62.7936 209.219 60.2033 187.176 50.6458 167.712C46.096 158.486 40.7103 149.695 34.5563 141.451" stroke="#535461" stroke-width="2" stroke-miterlimit="10"/>
<path d="M40.4331 109.431C42.404 116.946 34.5205 142.306 34.5205 142.306C34.5205 142.306 15.1957 124.087 13.2197 116.572C12.2693 112.963 12.7914 109.125 14.6712 105.901C16.5509 102.677 19.6343 100.332 23.243 99.382C26.8517 98.4316 30.6902 98.9537 33.914 100.833C37.1377 102.713 39.4828 105.797 40.4331 109.405V109.431Z" fill="#04C2C9"/>
<path d="M73.851 145.152C71.4245 152.534 51.0195 169.535 51.0195 169.535C51.0195 169.535 44.6974 143.739 47.129 136.358C47.6865 134.579 48.5921 132.929 49.7931 131.503C50.994 130.077 52.4663 128.904 54.1245 128.052C55.7827 127.2 57.5937 126.687 59.4521 126.541C61.3106 126.395 63.1795 126.62 64.9502 127.203C66.721 127.786 68.3582 128.715 69.7668 129.936C71.1754 131.157 72.3273 132.646 73.1554 134.316C73.9836 135.986 74.4716 137.804 74.591 139.664C74.7104 141.525 74.4588 143.39 73.851 145.152V145.152Z" fill="#04C2C9"/>
<path d="M91.5376 216.539C85.7172 221.658 59.5173 226.061 59.5173 226.061C59.5173 226.061 67.0834 200.603 72.9039 195.458C75.708 193.049 79.348 191.84 83.0366 192.093C86.7251 192.346 90.1656 194.042 92.6139 196.812C95.0621 199.583 96.3212 203.206 96.1189 206.897C95.9165 210.589 94.2689 214.053 91.5325 216.539H91.5376Z" fill="#04C2C9"/>
<path d="M92.7611 273.566C87.8928 279.622 62.8141 288.361 62.8141 288.361C62.8141 288.361 65.9675 261.987 70.8358 255.936C73.1807 253.05 76.5729 251.21 80.2706 250.818C83.9683 250.426 87.6708 251.514 90.5686 253.844C93.4664 256.175 95.3238 259.557 95.7346 263.253C96.1455 266.949 95.0764 270.657 92.7611 273.566Z" fill="#04C2C9"/>
<path d="M22.8335 178.488C29.5959 182.307 56.108 181.14 56.108 181.14C56.108 181.14 43.4125 157.812 36.6552 154.009C35.0441 153.044 33.2562 152.412 31.3969 152.15C29.5377 151.887 27.6447 152 25.8296 152.48C24.0145 152.961 22.314 153.8 20.8283 154.948C19.3427 156.097 18.1019 157.531 17.1791 159.166C16.2564 160.801 15.6704 162.605 15.4556 164.47C15.2409 166.335 15.4017 168.225 15.9287 170.027C16.4556 171.829 17.338 173.508 18.5239 174.964C19.7098 176.419 21.1751 177.623 22.8335 178.504V178.488Z" fill="#04C2C9"/>
<path d="M25.1064 245.165C32.7032 246.788 57.6744 237.732 57.6744 237.732C57.6744 237.732 38.5902 219.273 30.978 217.645C27.3293 216.866 23.5206 217.569 20.39 219.598C17.2593 221.628 15.0631 224.818 14.2845 228.467C13.5059 232.115 14.2086 235.924 16.2381 239.055C18.2676 242.185 21.4576 244.382 25.1064 245.16V245.165Z" fill="#04C2C9"/>
<path d="M36.2098 309.667C43.4227 312.549 69.5662 307.844 69.5662 307.844C69.5662 307.844 53.8658 286.421 46.6529 283.538C43.2232 282.307 39.4496 282.455 36.1267 283.951C32.8038 285.446 30.1908 288.173 28.8381 291.556C27.4853 294.94 27.4983 298.716 28.8742 302.091C30.2502 305.465 32.8818 308.173 36.2149 309.646L36.2098 309.667Z" fill="#04C2C9"/>
<path d="M40.4331 109.431C42.404 116.946 34.5205 142.306 34.5205 142.306C34.5205 142.306 15.1957 124.087 13.2197 116.572C12.2693 112.963 12.7914 109.125 14.6712 105.901C16.5509 102.677 19.6343 100.332 23.243 99.382C26.8517 98.4316 30.6902 98.9537 33.914 100.833C37.1377 102.713 39.4828 105.797 40.4331 109.405V109.431Z" fill="#04C2C9"/>
<path d="M73.851 145.152C71.4245 152.534 51.0195 169.535 51.0195 169.535C51.0195 169.535 44.6974 143.739 47.129 136.358C47.6865 134.579 48.5921 132.929 49.7931 131.503C50.994 130.077 52.4663 128.904 54.1245 128.052C55.7827 127.2 57.5937 126.687 59.4521 126.541C61.3106 126.395 63.1795 126.62 64.9502 127.203C66.721 127.786 68.3582 128.715 69.7668 129.936C71.1754 131.157 72.3273 132.646 73.1554 134.316C73.9836 135.986 74.4716 137.804 74.591 139.664C74.7104 141.525 74.4588 143.39 73.851 145.152V145.152Z" fill="#04C2C9"/>
<path d="M91.5376 216.539C85.7172 221.658 59.5173 226.061 59.5173 226.061C59.5173 226.061 67.0834 200.603 72.9039 195.458C75.708 193.049 79.348 191.84 83.0366 192.093C86.7251 192.346 90.1656 194.042 92.6139 196.812C95.0621 199.583 96.3212 203.206 96.1189 206.897C95.9165 210.589 94.2689 214.053 91.5325 216.539H91.5376Z" fill="#FC6681"/>
<path d="M92.7611 273.566C87.8928 279.622 62.8141 288.361 62.8141 288.361C62.8141 288.361 65.9675 261.987 70.8358 255.936C73.1807 253.05 76.5729 251.21 80.2706 250.818C83.9683 250.426 87.6708 251.514 90.5686 253.844C93.4664 256.175 95.3238 259.557 95.7346 263.253C96.1455 266.949 95.0764 270.657 92.7611 273.566Z" fill="#FC6681"/>
<path d="M22.8335 178.488C29.5959 182.307 56.108 181.14 56.108 181.14C56.108 181.14 43.4125 157.812 36.6552 154.009C35.0441 153.044 33.2562 152.412 31.3969 152.15C29.5377 151.887 27.6447 152 25.8296 152.48C24.0145 152.961 22.314 153.8 20.8283 154.948C19.3427 156.097 18.1019 157.531 17.1791 159.166C16.2564 160.801 15.6704 162.605 15.4556 164.47C15.2409 166.335 15.4017 168.225 15.9287 170.027C16.4556 171.829 17.338 173.508 18.5239 174.964C19.7098 176.419 21.1751 177.623 22.8335 178.504V178.488Z" fill="#04C2C9"/>
<path d="M25.1064 245.165C32.7032 246.788 57.6744 237.732 57.6744 237.732C57.6744 237.732 38.5902 219.273 30.978 217.645C27.3293 216.866 23.5206 217.569 20.39 219.598C17.2593 221.628 15.0631 224.818 14.2845 228.467C13.5059 232.115 14.2086 235.924 16.2381 239.055C18.2676 242.185 21.4576 244.382 25.1064 245.16V245.165Z" fill="#04C2C9"/>
<path d="M36.2098 309.667C43.4227 312.549 69.5662 307.844 69.5662 307.844C69.5662 307.844 53.8658 286.421 46.6529 283.538C43.2232 282.307 39.4496 282.455 36.1267 283.951C32.8038 285.446 30.1908 288.173 28.8381 291.556C27.4853 294.94 27.4983 298.716 28.8742 302.091C30.2502 305.465 32.8818 308.173 36.2149 309.646L36.2098 309.667Z" fill="#04C2C9"/>
<path opacity="0.1" d="M254.025 361.201C389.873 361.201 500 353.638 500 344.308C500 334.978 389.873 327.415 254.025 327.415C118.176 327.415 8.04936 334.978 8.04936 344.308C8.04936 353.638 118.176 361.201 254.025 361.201Z" fill="#04C2C9"/>
<path d="M465.686 329.836C465.686 329.836 465.277 329.288 464.709 328.674L464.872 328.618C464.872 328.618 457.562 310.347 459.19 302.633C460.818 294.918 452.694 276.244 452.694 276.244C452.694 276.244 440.71 251.702 446.382 232.117C447.03 229.81 447.519 227.461 447.846 225.088C449.541 213.488 448.942 211.097 446.1 206.859L445.788 206.403C446.139 206.062 446.416 205.652 446.602 205.2C449.039 198.704 435.238 186.93 438.908 175.965C442.297 165.803 433.477 144.835 432.166 141.82L432.018 141.477L431.577 141.62C431.651 139.002 432.682 136.501 434.475 134.592L434.557 134.51C435.775 133.389 437.255 132.564 438.396 131.361L438.463 131.285C438.575 131.177 438.693 131.07 438.801 130.957C439.932 129.769 440.705 128.008 440.091 126.483C439.533 125.09 437.966 124.241 437.598 122.787C437.509 122.133 437.454 121.475 437.434 120.816C437.137 118.768 435.145 117.483 433.338 116.47C431.091 115.2 428.731 113.91 426.136 113.879C422.624 113.879 419.481 116.234 415.995 116.526C414.807 116.628 413.573 116.485 412.447 116.879C411.589 117.237 410.8 117.743 410.118 118.374C409.717 118.69 409.337 119.032 408.981 119.398C408.193 120.135 407.523 121.005 407.553 122.05C407.61 122.812 407.967 123.521 408.546 124.021C407.423 125.549 406.647 127.305 406.275 129.165C405.902 131.025 405.941 132.944 406.39 134.787C406.838 136.631 407.685 138.353 408.87 139.834C410.055 141.316 411.551 142.519 413.251 143.361C413.292 143.642 413.333 143.929 413.374 144.231C413.886 148.075 414.188 153.512 412.821 157.771C406.99 160.776 397.904 165.675 396.276 167.851C396.149 168.035 396.065 168.244 396.028 168.464C395.99 168.684 396.002 168.91 396.061 169.125C396.015 169.325 396.004 169.531 396.03 169.735C394.755 170.026 393.061 169.735 390.998 167.851C386.124 163.387 370.7 149.985 370.7 149.985C370.7 149.985 363.8 132.933 358.926 136.163C354.053 139.393 364.609 155.247 364.609 155.247L387.716 180.024C387.716 180.024 388.53 185.302 397.054 182.461C399.869 181.524 402.414 180.628 404.564 179.855L405.076 180.29C403.156 191.522 402.163 206.49 409.243 210.882C409.797 211.617 410.197 212.456 410.42 213.35C410.384 213.483 410.348 213.621 410.318 213.754C409.775 215.996 409.432 218.281 409.294 220.583C407.959 223.634 407.344 226.952 407.497 230.279L404.784 268.934C404.784 268.934 404.379 277.457 407.22 283.953C410.062 290.449 418.995 322.93 412.903 325.367L413.481 325.444C411.736 327.241 408.797 329.964 406.56 330.502C403.161 331.31 404.113 336.522 411.649 337.392C419.184 338.262 420.09 338.191 425.388 333.773C430.057 329.882 430.799 328.142 430.907 327.768L431.173 327.804C431.173 327.804 428.332 317.248 431.173 312.784C434.014 308.32 424.682 281.122 424.682 281.122C424.604 277.647 424.732 274.17 425.066 270.71C426.499 274.462 427.523 277.063 427.523 277.063C427.523 277.063 429.96 288.837 432.801 290.884C435.642 292.932 450.667 320.929 448.23 333.107L447.948 334.525L448.634 334.326H448.696C447.759 336.645 446.054 340.31 444.171 341.656C441.329 343.704 444.171 348.152 451.481 346.12C458.791 344.088 459.6 343.683 462.85 337.597C466.101 331.51 465.686 329.836 465.686 329.836Z" fill="url(#paint0_linear)"/>
<path d="M411.884 221.433L410.103 219.237C408.281 222.622 407.412 226.438 407.589 230.279L404.937 268.073C404.937 268.073 404.538 276.407 407.318 282.76C410.097 289.113 418.831 320.867 412.877 323.248L430.717 325.659C430.717 325.659 427.938 315.339 430.717 310.972C433.497 306.605 424.365 280.011 424.365 280.011C424.365 280.011 423.571 257.784 431.112 252.619C438.652 247.454 411.884 221.433 411.884 221.433Z" fill="#555388"/>
<path d="M414.894 321.758C414.894 321.758 409.995 327.481 406.678 328.275C403.361 329.068 404.287 334.157 411.654 335.012C419.02 335.866 419.906 335.795 425.091 331.474C430.277 327.154 430.508 325.531 430.508 325.531C430.508 325.531 429.484 321.692 428.245 321.61C427.006 321.528 414.894 321.758 414.894 321.758Z" fill="#603556"/>
<path opacity="0.1" d="M413.077 222.626L410.108 219.237C408.286 222.622 407.417 226.438 407.594 230.279L404.942 268.073C404.942 268.073 404.543 276.407 407.323 282.76C410.103 289.113 418.836 320.867 412.882 323.248L430.717 325.659C430.717 325.659 427.938 315.339 430.717 310.972C433.497 306.605 424.365 280.011 424.365 280.011C424.365 280.011 423.571 257.784 431.112 252.619C438.652 247.454 413.077 222.626 413.077 222.626Z" fill="black"/>
<path d="M430.748 274.426C430.748 274.426 425.788 177.055 405.424 142.593C405.424 142.593 390.491 115.318 378.011 107.363V104.22C357.647 90.1215 332.588 104.22 332.588 104.22V105.612L327.367 109.963L303.855 109.881C302.79 108.599 301.457 107.567 299.948 106.859C298.439 106.151 296.793 105.785 295.126 105.786H187.839C186.271 105.784 184.72 106.108 183.283 106.738C181.847 107.367 180.557 108.287 179.495 109.441H155.077C155.077 109.441 153.638 107.767 149.855 106.083V104.22C129.491 90.1215 104.433 104.22 104.433 104.22V108.003C103.837 108.396 103.309 108.881 102.866 109.441C102.866 109.441 82.2412 123.263 77.5419 140.504C77.5419 140.504 52.2174 216.472 51.6953 275.993C51.1731 335.513 74.1479 343.868 86.1523 345.434C98.1567 347.001 119.565 344.922 140.451 292.195L149.328 261.393C149.328 261.393 150.894 243.118 169.692 254.605C188.489 266.092 205.193 248.339 205.193 248.339H275.684C275.684 248.339 299.155 262.939 320.584 251.431C320.584 251.431 328.938 240.466 336.771 277.539C336.771 277.539 360.79 353.768 397.858 345.936C434.925 338.103 430.748 274.426 430.748 274.426Z" fill="url(#paint1_linear)"/>
<path d="M107.105 112.154V106.523C107.105 106.523 131.677 92.7015 151.642 106.523V111.642L107.105 112.154Z" fill="#535461"/>
<path d="M330.812 112.154V106.523C330.812 106.523 355.384 92.7015 375.349 106.523V111.642L330.812 112.154Z" fill="#535461"/>
<path opacity="0.1" d="M107.105 112.154V106.523C107.105 106.523 131.677 92.7015 151.642 106.523V111.642L107.105 112.154Z" fill="black"/>
<path opacity="0.1" d="M330.812 112.154V106.523C330.812 106.523 355.384 92.7015 375.349 106.523V111.642L330.812 112.154Z" fill="black"/>
<path d="M180.821 111.642H156.761C156.761 111.642 150.618 104.476 130.141 104.987C109.665 105.499 105.569 111.642 105.569 111.642C105.569 111.642 85.3486 125.208 80.7413 142.101C80.7413 142.101 55.9134 216.585 55.4015 274.943C54.8896 333.302 77.4139 341.492 89.1879 343.028C100.962 344.564 121.951 342.516 142.427 290.813L151.13 260.61C151.13 260.61 152.665 242.693 171.094 253.955C189.523 265.217 205.905 247.812 205.905 247.812H275.013C275.013 247.812 298.049 262.145 319.038 250.883C319.038 250.883 327.229 240.133 334.907 276.479C334.907 276.479 358.455 351.219 394.801 343.54C431.147 335.861 427.052 273.408 427.052 273.408C427.052 273.408 422.189 177.935 402.224 144.149C402.224 144.149 383.027 109.083 370.229 107.547C370.229 107.547 342.586 102.428 331.836 107.035L325.693 112.154L180.821 111.642Z" fill="#535461"/>
<path d="M125.022 206.347C149.619 206.347 169.559 186.407 169.559 161.81C169.559 137.213 149.619 117.273 125.022 117.273C100.425 117.273 80.4854 137.213 80.4854 161.81C80.4854 186.407 100.425 206.347 125.022 206.347Z" fill="#E2E2EC"/>
<path d="M357.432 206.347C382.028 206.347 401.968 186.407 401.968 161.81C401.968 137.213 382.028 117.273 357.432 117.273C332.835 117.273 312.895 137.213 312.895 161.81C312.895 186.407 332.835 206.347 357.432 206.347Z" fill="#E2E2EC"/>
<path d="M132.783 151.879L126.844 157.131C126.342 157.574 125.695 157.818 125.025 157.818C124.355 157.818 123.708 157.574 123.205 157.131L117.256 151.879C116.965 151.623 116.732 151.308 116.571 150.955C116.411 150.602 116.327 150.219 116.325 149.831V135.38C116.326 134.65 116.617 133.951 117.133 133.436C117.649 132.92 118.349 132.631 119.079 132.631H130.981C131.343 132.63 131.701 132.701 132.035 132.839C132.37 132.977 132.674 133.18 132.93 133.436C133.186 133.692 133.388 133.996 133.527 134.33C133.665 134.665 133.735 135.023 133.735 135.385V149.821C133.732 150.212 133.645 150.598 133.481 150.953C133.317 151.308 133.079 151.623 132.783 151.879V151.879Z" fill="#535461"/>
<path d="M132.783 171.736L126.844 166.489C126.342 166.046 125.695 165.802 125.025 165.802C124.355 165.802 123.708 166.046 123.205 166.489L117.256 171.741C116.965 171.998 116.732 172.313 116.571 172.665C116.411 173.018 116.327 173.401 116.325 173.789V188.225C116.324 188.587 116.395 188.945 116.533 189.28C116.671 189.614 116.874 189.918 117.13 190.174C117.386 190.43 117.689 190.633 118.024 190.771C118.358 190.909 118.717 190.98 119.079 190.979H130.981C131.342 190.98 131.7 190.909 132.034 190.771C132.368 190.633 132.672 190.431 132.928 190.176C133.184 189.92 133.387 189.617 133.525 189.283C133.664 188.949 133.735 188.591 133.735 188.23V173.794C133.732 173.403 133.645 173.017 133.481 172.662C133.317 172.307 133.079 171.992 132.783 171.736V171.736Z" fill="#535461"/>
<path d="M115.096 169.581L120.348 163.633C120.791 163.13 121.035 162.483 121.035 161.813C121.035 161.143 120.791 160.496 120.348 159.993L115.096 154.044C114.839 153.754 114.524 153.52 114.172 153.36C113.819 153.199 113.436 153.115 113.048 153.113H98.6123C97.8828 153.114 97.1836 153.405 96.6682 153.921C96.1528 154.437 95.8633 155.137 95.8633 155.867V167.769C95.8626 168.131 95.9334 168.489 96.0716 168.824C96.2098 169.158 96.4126 169.462 96.6685 169.718C96.9243 169.974 97.2282 170.176 97.5627 170.315C97.8971 170.453 98.2556 170.524 98.6174 170.523H113.053C113.441 170.519 113.823 170.433 114.175 170.27C114.527 170.108 114.841 169.873 115.096 169.581V169.581Z" fill="#535461"/>
<path d="M134.953 169.581L129.711 163.627C129.267 163.125 129.023 162.478 129.023 161.808C129.023 161.137 129.267 160.49 129.711 159.988L134.963 154.039C135.22 153.748 135.535 153.515 135.888 153.354C136.24 153.194 136.623 153.11 137.011 153.108H151.447C151.809 153.107 152.167 153.178 152.502 153.316C152.836 153.454 153.14 153.657 153.396 153.913C153.652 154.169 153.855 154.472 153.993 154.807C154.131 155.141 154.202 155.5 154.201 155.862V167.764C154.202 168.125 154.131 168.483 153.993 168.817C153.856 169.151 153.653 169.455 153.398 169.711C153.143 169.967 152.839 170.17 152.505 170.308C152.172 170.447 151.814 170.518 151.452 170.518H137.016C136.625 170.517 136.239 170.433 135.884 170.272C135.528 170.11 135.211 169.875 134.953 169.581Z" fill="#535461"/>
<path d="M117.343 129.048H132.701L125.022 122.393L117.343 129.048Z" stroke="#535461" stroke-width="2" stroke-miterlimit="10"/>
<path d="M117.343 194.573H132.701L125.022 201.228L117.343 194.573Z" stroke="#535461" stroke-width="2" stroke-miterlimit="10"/>
<path d="M92.2594 154.131V169.489L85.6045 161.81L92.2594 154.131Z" stroke="#535461" stroke-width="2" stroke-miterlimit="10"/>
<path d="M157.785 154.131V169.489L164.439 161.81L157.785 154.131Z" stroke="#535461" stroke-width="2" stroke-miterlimit="10"/>
<path d="M185.428 242.693C203.24 242.693 217.679 228.254 217.679 210.442C217.679 192.631 203.24 178.191 185.428 178.191C167.616 178.191 153.177 192.631 153.177 210.442C153.177 228.254 167.616 242.693 185.428 242.693Z" fill="#E2E2EC"/>
<path d="M184.404 226.823C196.279 226.823 205.905 217.197 205.905 205.323C205.905 193.449 196.279 183.822 184.404 183.822C172.53 183.822 162.904 193.449 162.904 205.323C162.904 217.197 172.53 226.823 184.404 226.823Z" fill="#535461"/>
<path d="M297.026 242.693C314.837 242.693 329.276 228.254 329.276 210.442C329.276 192.631 314.837 178.191 297.026 178.191C279.214 178.191 264.775 192.631 264.775 210.442C264.775 228.254 279.214 242.693 297.026 242.693Z" fill="#E2E2EC"/>
<path d="M296.002 226.823C307.876 226.823 317.502 217.197 317.502 205.323C317.502 193.449 307.876 183.822 296.002 183.822C284.127 183.822 274.501 193.449 274.501 205.323C274.501 217.197 284.127 226.823 296.002 226.823Z" fill="#535461"/>
<path opacity="0.1" d="M184.404 219.657C192.32 219.657 198.738 213.239 198.738 205.323C198.738 197.407 192.32 190.989 184.404 190.989C176.488 190.989 170.071 197.407 170.071 205.323C170.071 213.239 176.488 219.657 184.404 219.657Z" stroke="black" stroke-width="2" stroke-miterlimit="10"/>
<path opacity="0.1" d="M296.002 219.657C303.918 219.657 310.335 213.239 310.335 205.323C310.335 197.407 303.918 190.989 296.002 190.989C288.086 190.989 281.668 197.407 281.668 205.323C281.668 213.239 288.086 219.657 296.002 219.657Z" stroke="black" stroke-width="2" stroke-miterlimit="10"/>
<path d="M242.251 223.24C247.34 223.24 251.465 219.114 251.465 214.025C251.465 208.936 247.34 204.811 242.251 204.811C237.162 204.811 233.036 208.936 233.036 214.025C233.036 219.114 237.162 223.24 242.251 223.24Z" fill="#E2E2EC"/>
<path d="M228.168 185.281C229.279 185.281 230.18 184.381 230.18 183.27C230.18 182.159 229.279 181.258 228.168 181.258C227.057 181.258 226.156 182.159 226.156 183.27C226.156 184.381 227.057 185.281 228.168 185.281Z" fill="#E2E2EC"/>
<path d="M235.703 185.281C236.814 185.281 237.715 184.381 237.715 183.27C237.715 182.159 236.814 181.258 235.703 181.258C234.592 181.258 233.691 182.159 233.691 183.27C233.691 184.381 234.592 185.281 235.703 185.281Z" fill="#E2E2EC"/>
<path d="M234.7 194.829C235.811 194.829 236.712 193.928 236.712 192.817C236.712 191.706 235.811 190.805 234.7 190.805C233.589 190.805 232.688 191.706 232.688 192.817C232.688 193.928 233.589 194.829 234.7 194.829Z" fill="#E2E2EC"/>
<path d="M241.739 195.085C242.87 195.085 243.786 194.168 243.786 193.037C243.786 191.906 242.87 190.989 241.739 190.989C240.608 190.989 239.691 191.906 239.691 193.037C239.691 194.168 240.608 195.085 241.739 195.085Z" fill="#E2E2EC"/>
<path d="M248.767 194.829C249.878 194.829 250.779 193.928 250.779 192.817C250.779 191.706 249.878 190.805 248.767 190.805C247.656 190.805 246.755 191.706 246.755 192.817C246.755 193.928 247.656 194.829 248.767 194.829Z" fill="#E2E2EC"/>
<path d="M231.685 190.308C232.796 190.308 233.697 189.408 233.697 188.297C233.697 187.186 232.796 186.285 231.685 186.285C230.574 186.285 229.673 187.186 229.673 188.297C229.673 189.408 230.574 190.308 231.685 190.308Z" fill="#E2E2EC"/>
<path d="M238.155 190.477C239.286 190.477 240.203 189.561 240.203 188.43C240.203 187.299 239.286 186.382 238.155 186.382C237.024 186.382 236.108 187.299 236.108 188.43C236.108 189.561 237.024 190.477 238.155 190.477Z" fill="#E2E2EC"/>
<path d="M244.81 190.477C245.941 190.477 246.858 189.561 246.858 188.43C246.858 187.299 245.941 186.382 244.81 186.382C243.679 186.382 242.763 187.299 242.763 188.43C242.763 189.561 243.679 190.477 244.81 190.477Z" fill="#E2E2EC"/>
<path d="M251.782 190.308C252.894 190.308 253.794 189.408 253.794 188.297C253.794 187.186 252.894 186.285 251.782 186.285C250.671 186.285 249.771 187.186 249.771 188.297C249.771 189.408 250.671 190.308 251.782 190.308Z" fill="#E2E2EC"/>
<path d="M241.739 185.358C242.87 185.358 243.786 184.441 243.786 183.311C243.786 182.18 242.87 181.263 241.739 181.263C240.608 181.263 239.691 182.18 239.691 183.311C239.691 184.441 240.608 185.358 241.739 185.358Z" fill="#E2E2EC"/>
<path d="M248.906 185.358C250.036 185.358 250.953 184.441 250.953 183.311C250.953 182.18 250.036 181.263 248.906 181.263C247.775 181.263 246.858 182.18 246.858 183.311C246.858 184.441 247.775 185.358 248.906 185.358Z" fill="#E2E2EC"/>
<path d="M254.798 185.281C255.909 185.281 256.81 184.381 256.81 183.27C256.81 182.159 255.909 181.258 254.798 181.258C253.687 181.258 252.786 182.159 252.786 183.27C252.786 184.381 253.687 185.281 254.798 185.281Z" fill="#E2E2EC"/>
<path d="M168.279 115.226H165.719C163.316 115.226 161.368 117.174 161.368 119.577V130.327C161.368 132.73 163.316 134.679 165.719 134.679H168.279C170.682 134.679 172.63 132.73 172.63 130.327V119.577C172.63 117.174 170.682 115.226 168.279 115.226Z" fill="#E2E2EC"/>
<path d="M317.758 115.226H315.199C312.795 115.226 310.847 117.174 310.847 119.577V130.327C310.847 132.73 312.795 134.679 315.199 134.679H317.758C320.161 134.679 322.109 132.73 322.109 130.327V119.577C322.109 117.174 320.161 115.226 317.758 115.226Z" fill="#E2E2EC"/>
<path d="M357.943 146.965C364.729 146.965 370.229 141.464 370.229 134.679C370.229 127.893 364.729 122.393 357.943 122.393C351.158 122.393 345.658 127.893 345.658 134.679C345.658 141.464 351.158 146.965 357.943 146.965Z" fill="#535461"/>
<path d="M331.836 173.072C338.621 173.072 344.122 167.572 344.122 160.786C344.122 154.001 338.621 148.5 331.836 148.5C325.05 148.5 319.55 154.001 319.55 160.786C319.55 167.572 325.05 173.072 331.836 173.072Z" fill="#535461"/>
<path d="M385.075 171.536C391.86 171.536 397.361 166.036 397.361 159.251C397.361 152.465 391.86 146.965 385.075 146.965C378.29 146.965 372.789 152.465 372.789 159.251C372.789 166.036 378.29 171.536 385.075 171.536Z" fill="#535461"/>
<path d="M359.991 198.668C366.777 198.668 372.277 193.167 372.277 186.382C372.277 179.597 366.777 174.096 359.991 174.096C353.206 174.096 347.705 179.597 347.705 186.382C347.705 193.167 353.206 198.668 359.991 198.668Z" fill="#535461"/>
<path d="M294.082 108.059H188.883C182.734 108.059 177.749 113.044 177.749 119.193V165.01C177.749 171.159 182.734 176.144 188.883 176.144H294.082C300.231 176.144 305.216 171.159 305.216 165.01V119.193C305.216 113.044 300.231 108.059 294.082 108.059Z" fill="#E2E2EC"/>
<path d="M350.521 139.798L357.688 127.512L365.366 139.798H350.521Z" stroke="#E2E2EC" stroke-width="2" stroke-miterlimit="10"/>
<path d="M338.235 155.155H325.437V166.417H338.235V155.155Z" stroke="#E2E2EC" stroke-width="2" stroke-miterlimit="10"/>
<path d="M385.075 166.417C389.033 166.417 392.242 163.209 392.242 159.251C392.242 155.292 389.033 152.084 385.075 152.084C381.117 152.084 377.908 155.292 377.908 159.251C377.908 163.209 381.117 166.417 385.075 166.417Z" stroke="#E2E2EC" stroke-width="2" stroke-miterlimit="10"/>
<path d="M354.104 180.623L365.622 192.141" stroke="#E2E2EC" stroke-width="2" stroke-miterlimit="10"/>
<path d="M365.878 180.623L354.104 191.885" stroke="#E2E2EC" stroke-width="2" stroke-miterlimit="10"/>
<path d="M176.116 340.238C177.652 339.066 179.111 337.679 179.556 336.005C179.784 335.115 179.663 334.173 179.216 333.37C178.769 332.568 178.032 331.968 177.155 331.694C174.949 331.008 172.594 332.252 170.803 333.512C169.011 334.771 166.968 336.209 164.629 335.943C167.05 334.192 168.212 331.336 167.537 328.776C167.423 328.219 167.14 327.709 166.728 327.317C165.504 326.248 163.283 326.708 161.818 327.548C157.155 330.225 155.855 335.39 155.829 340.044C155.358 338.365 155.757 336.619 155.742 334.894C155.727 333.169 155.153 331.264 153.372 330.338C152.232 329.845 150.999 329.609 149.758 329.647C147.664 329.585 145.325 329.754 143.896 331.008C142.12 332.544 142.581 335.17 144.127 336.88C145.673 338.59 148.027 339.665 150.193 340.847C151.846 341.748 153.515 342.798 154.529 344.221C154.659 344.41 154.767 344.612 154.851 344.825H167.992C170.879 343.638 173.608 342.097 176.116 340.238V340.238Z" fill="#04C2C9"/>
<path d="M448.604 330.005C448.604 330.005 446.223 337.172 443.444 339.138C440.664 341.103 443.444 345.49 450.61 343.504C457.777 341.518 458.55 341.124 461.724 335.17C464.898 329.217 464.504 327.63 464.504 327.63C464.504 327.63 462.123 324.456 460.92 324.85C459.717 325.244 448.604 330.005 448.604 330.005Z" fill="#603556"/>
<path d="M433.917 151.766C433.917 151.766 401.763 169.627 409.304 164.467C414.372 161.001 414.065 151.802 413.317 146.135C413.082 144.369 412.805 142.946 412.637 142.147C412.539 141.697 412.478 141.446 412.478 141.446C412.478 141.446 428.071 132.088 427.195 137.714C427.195 137.765 427.195 137.817 427.17 137.868C427.095 138.244 427.055 138.626 427.052 139.009C426.945 144.794 433.917 151.766 433.917 151.766Z" fill="#C87486"/>
<path d="M398.979 169.233C398.979 169.233 396.199 173.6 391.438 169.233C386.677 164.866 371.591 151.766 371.591 151.766C371.591 151.766 364.844 135.093 360.073 138.272C355.302 141.451 365.632 156.932 365.632 156.932L388.259 181.145C388.259 181.145 389.053 186.305 397.392 183.526C405.731 180.746 411.684 178.365 411.684 178.365L398.979 169.233Z" fill="#C87486"/>
<path d="M463.69 326.432L447.82 331.991L447.15 332.186L447.426 330.798C449.807 318.891 435.14 291.499 432.34 289.513C429.54 287.526 427.17 276.003 427.17 276.003C427.17 276.003 421.969 249.803 421.175 244.264C420.976 242.877 420.249 241.771 419.368 240.246C418.04 237.934 417.008 235.464 416.297 232.895C414.551 226.752 410.481 215.848 411.976 209.679C412.278 208.425 411.045 211.63 411.464 210.406L411.705 209.731L443.843 205.359C444.376 206.006 444.875 206.681 445.338 207.381C447.769 210.99 447.611 210.99 448.123 217.849C447.901 221.988 447.317 226.099 446.377 230.135C442.051 249.399 451.808 275.184 451.808 275.184C451.808 275.184 459.748 293.444 458.161 300.985C456.574 308.525 463.69 326.432 463.69 326.432Z" fill="#555388"/>
<path opacity="0.1" d="M445.338 207.376C440.582 213.34 410.118 217.972 410.497 216.078C410.611 215.425 410.562 214.753 410.353 214.123C410.656 212.865 411.022 211.623 411.449 210.401L411.69 209.725L443.843 205.359C444.376 206.005 444.875 206.678 445.338 207.376V207.376Z" fill="black"/>
<path d="M431.536 143.417C431.536 143.417 418.431 147.4 414.848 156.532C411.265 165.665 417.566 166.161 417.566 166.161C417.566 166.161 406.304 195.852 409.289 211.312C409.289 211.312 410.876 213.299 410.481 215.28C410.087 217.261 443.428 212.106 445.804 205.753C448.179 199.4 434.69 187.892 438.263 177.173C441.836 166.453 431.536 143.417 431.536 143.417Z" fill="#DFE5EE"/>
<path opacity="0.1" d="M427.17 138.666C427.147 138.786 427.108 138.901 427.052 139.009C426.509 140.033 424.784 138.912 425.383 140.448C423.08 142.762 422.353 147.395 418.836 147.395C416.923 147.4 415.035 146.971 413.312 146.14C413.077 144.374 412.8 142.951 412.631 142.153C414.167 141.241 426.453 134.126 427.19 137.719C427.248 138.033 427.241 138.355 427.17 138.666V138.666Z" fill="black"/>
<path d="M418.831 146.606C425.845 146.606 431.531 140.92 431.531 133.906C431.531 126.891 425.845 121.205 418.831 121.205C411.816 121.205 406.13 126.891 406.13 133.906C406.13 140.92 411.816 146.606 418.831 146.606Z" fill="#C87486"/>
<path opacity="0.1" d="M431.536 174.393L409.309 184.713C409.309 184.713 394.223 173.205 396.603 170.037C398.984 166.868 417.643 157.751 417.643 157.751C417.643 157.751 436.697 161.692 431.536 174.393Z" fill="black"/>
<path d="M431.536 173.62L409.309 183.94C409.309 183.94 394.223 172.427 396.608 169.253C398.994 166.079 417.648 156.967 417.648 156.967C417.648 156.967 436.697 160.899 431.536 173.62Z" fill="#DFE5EE"/>
<path opacity="0.1" d="M415.165 128.464C413.225 128.269 411.219 128.054 409.534 127.077C408.557 126.514 407.661 125.582 407.63 124.451C407.594 123.12 408.715 122.08 409.744 121.236C410.412 120.619 411.183 120.125 412.022 119.777C413.123 119.393 414.326 119.531 415.488 119.434C418.908 119.147 421.969 116.823 425.404 116.843C427.927 116.843 430.246 118.133 432.443 119.377C434.198 120.371 436.149 121.63 436.441 123.626C436.46 124.27 436.513 124.913 436.599 125.551C436.963 126.974 438.493 127.804 439.041 129.165C439.64 130.655 438.882 132.38 437.777 133.542C436.671 134.704 435.217 135.503 434.055 136.588C432.977 137.588 432.122 138.804 431.547 140.158C430.972 141.511 430.689 142.971 430.717 144.441C430.743 144.635 430.713 144.832 430.63 145.009C430.542 145.115 430.433 145.202 430.31 145.264C430.186 145.325 430.051 145.361 429.914 145.367C428.649 145.603 427.088 145.731 426.33 144.687C425.573 143.642 426.172 141.902 425.306 140.873C424.206 139.547 421.892 140.601 420.402 139.731C419.9 139.406 419.508 138.937 419.276 138.385C418.047 135.738 419.455 133.66 419.967 131.131C420.566 128.177 417.249 128.674 415.165 128.464Z" fill="black"/>
<path d="M415.565 128.06C413.625 127.865 411.618 127.65 409.934 126.672C408.956 126.109 408.06 125.177 408.029 124.046C407.993 122.715 409.115 121.676 410.144 120.831C410.811 120.215 411.582 119.721 412.422 119.372C413.522 118.988 414.725 119.127 415.887 119.029C419.307 118.743 422.368 116.419 425.803 116.439C428.327 116.439 430.646 117.729 432.842 118.973C434.598 119.966 436.548 121.225 436.84 123.222C436.859 123.866 436.912 124.508 436.999 125.147C437.362 126.57 438.893 127.399 439.44 128.761C440.039 130.251 439.282 131.976 438.176 133.138C437.07 134.3 435.616 135.098 434.454 136.184C433.373 137.185 432.515 138.405 431.939 139.762C431.363 141.119 431.081 142.583 431.112 144.057C431.137 144.251 431.107 144.448 431.025 144.625C430.937 144.731 430.827 144.818 430.704 144.88C430.581 144.941 430.446 144.977 430.308 144.983C429.043 145.219 427.482 145.347 426.724 144.303C425.967 143.258 426.566 141.518 425.701 140.489C424.6 139.163 422.286 140.218 420.796 139.347C420.294 139.022 419.902 138.553 419.67 138.001C418.431 135.349 419.844 133.255 420.356 130.701C420.96 127.778 417.643 128.28 415.565 128.06Z" fill="#603456"/>
<defs>
<linearGradient id="paint0_linear" x1="411.664" y1="346.596" x2="411.664" y2="113.859" gradientUnits="userSpaceOnUse">
<stop stop-color="#808080" stop-opacity="0.25"/>
<stop offset="0.54" stop-color="#808080" stop-opacity="0.12"/>
<stop offset="1" stop-color="#808080" stop-opacity="0.1"/>
</linearGradient>
<linearGradient id="paint1_linear" x1="221116" y1="175758" x2="221116" y2="55074" gradientUnits="userSpaceOnUse">
<stop stop-color="#808080" stop-opacity="0.25"/>
<stop offset="0.54" stop-color="#808080" stop-opacity="0.12"/>
<stop offset="1" stop-color="#808080" stop-opacity="0.1"/>
</linearGradient>
</defs>
</svg>
