<svg width="80" height="79" viewBox="0 0 80 79" fill="none" xmlns="http://www.w3.org/2000/svg">
<path fill-rule="evenodd" clip-rule="evenodd" d="M40.1917 2.07577e-05C30.6504 -0.00967681 21.4175 3.37879 14.1475 9.55818C6.87753 15.7376 2.04577 24.304 0.518081 33.7222C-1.0096 43.1405 0.866652 52.7949 5.81061 60.9555C10.7546 69.116 18.4431 75.2492 27.4983 78.256C29.5194 78.6257 30.2341 77.3687 30.2341 76.3088C30.2341 75.249 30.2341 72.8335 30.2341 69.4814C19.0195 71.9216 16.6533 64.0836 16.6533 64.0836C15.9094 61.6544 14.3288 59.5674 12.1921 58.1929C8.56895 55.7281 12.4879 55.7281 12.4879 55.7281C13.758 55.9075 14.9706 56.3736 16.0339 57.091C17.0972 57.8084 17.9833 58.7583 18.6251 59.8689C19.1705 60.8578 19.9057 61.7292 20.7887 62.4332C21.6717 63.1372 22.685 63.6599 23.7704 63.9714C24.8559 64.2828 25.9922 64.3768 27.1141 64.2481C28.236 64.1193 29.3214 63.7703 30.3081 63.221C30.4628 61.1933 31.3369 59.2877 32.7728 57.8478C23.8504 56.8373 14.4844 53.3866 14.4844 38.1298C14.4231 34.1442 15.8969 30.2877 18.6005 27.3588C17.3964 23.8934 17.5371 20.1023 18.9949 16.7357C18.9949 16.7357 22.3716 15.6512 30.037 20.8518C36.6193 19.0446 43.567 19.0446 50.1494 20.8518C57.8147 15.6512 61.1668 16.7357 61.1668 16.7357C62.6449 20.0666 62.8208 23.8306 61.6598 27.2849C64.3634 30.2138 65.8372 34.0703 65.7759 38.0558C65.7759 53.4852 56.3852 56.8619 47.4381 57.7739C48.3975 58.7383 49.1383 59.8976 49.6103 61.1734C50.0824 62.4492 50.2746 63.8115 50.174 65.1681C50.174 70.5413 50.174 74.8793 50.174 76.1856C50.174 77.4919 50.8888 78.5024 52.9345 78.1081C61.8866 75.022 69.46 68.8713 74.3166 60.7426C79.1733 52.6138 81.0007 43.0301 79.476 33.6845C77.9514 24.339 73.1727 15.833 65.9844 9.66932C58.796 3.50561 49.6605 0.080838 40.1917 2.07577e-05V2.07577e-05Z" fill="white"/>
</svg>
