<svg width="80" height="80" viewBox="0 0 80 80" fill="none" xmlns="http://www.w3.org/2000/svg">
<path fill-rule="evenodd" clip-rule="evenodd" d="M40 80C62.0914 80 80 62.0914 80 40C80 17.9086 62.0914 0 40 0C17.9086 0 0 17.9086 0 40C0 62.0914 17.9086 80 40 80ZM17.9375 28.1875V62H27V28.1875H17.9375ZM18.75 16.0938C17.8542 16.9688 17.4062 18.0833 17.4062 19.4375C17.4062 20.8125 17.8646 21.9375 18.7812 22.8125C19.7188 23.6875 20.9479 24.125 22.4688 24.125C23.9896 24.125 25.2083 23.6875 26.125 22.8125C27.0625 21.9375 27.5312 20.8125 27.5312 19.4375C27.5312 18.0833 27.0729 16.9688 26.1562 16.0938C25.2396 15.2188 24.0104 14.7812 22.4688 14.7812C20.9062 14.7812 19.6667 15.2188 18.75 16.0938ZM43.0625 32.0938L42.7812 28.1875H34.2812V62H43.3125V38.1562C44.5833 35.9896 46.4896 34.9062 49.0312 34.9062C50.9688 34.9062 52.3542 35.3438 53.1875 36.2188C54.0208 37.0729 54.4375 38.4583 54.4375 40.375V62H63.4688V40.1562C63.4271 35.9688 62.5312 32.8229 60.7812 30.7188C59.0312 28.6146 56.3646 27.5625 52.7812 27.5625C48.7188 27.5625 45.4792 29.0729 43.0625 32.0938Z" fill="white"/>
</svg>
