<svg width="500" height="700" viewBox="0 0 500 700" fill="none" xmlns="http://www.w3.org/2000/svg">
<g clip-path="url(#clip0)">
<rect width="500" height="700" fill="white"/>
<rect width="500" height="700" fill="#1A1B02"/>
<path d="M175 432C80.5999 390.4 -15 414.667 -51 432C-113 489.333 -216.2 510.4 -21 704C223 946 46.9999 706 239 714C431 722 389 776 481 714C573 652 687 588 673 490C659 392 607 376 543 322C479 268 423 326 343 376C263 426 293 484 175 432Z" fill="#C4C4C4" fill-opacity="0.63"/>
<path d="M69 488C-46.2 484.8 -59 513.333 -51 528C-109 514.667 -223.4 471.2 -217 404C-209 320 -197 296 -19 334C159 372 135 408 257 392C379 376 241 302 411 296C581 290 615 352 591 404C567 456 473 446 411 440C349 434 319 410 257 416C195 422 213 492 69 488Z" fill="#AEAEAE" fill-opacity="0.56"/>
<path d="M19 88C-105.8 68.8 -89 -2.66667 -65 -36C37 -67.3333 295.8 -128.8 515 -124C789 -118 593 52 539 76C485 100 461 120 439 140C417 160 329 118 279 118C239 130 137 164 103 140C69 116 43 91.6923 19 88Z" fill="#EBEBEB" fill-opacity="0.37"/>
<path d="M99 86C44.6 86 108.333 -6 147 -52L297 -76C386.333 -53.3333 564.6 -5.6 563 4C561 16 521 56 475 58C429 60 407 86 367 106C327 126 281 192 239 154C197 116 167 86 99 86Z" fill="white" fill-opacity="0.29"/>
</g>
<defs>
<clipPath id="clip0">
<rect width="500" height="700" fill="white"/>
</clipPath>
</defs>
</svg>
