<svg width="1095" height="693" viewBox="0 0 1095 693" fill="none" xmlns="http://www.w3.org/2000/svg">
<g id="Plane-clouds">
<g id="plane" filter="url(#filter0_d)">
<path id="Vector" d="M880.64 402.66C870.87 406.26 853.71 409.22 833.85 411.6C779.85 418.08 705.85 420.38 705.85 420.38C705.85 420.38 325.44 451.93 40.33 334.59C40.33 334.59 -1.13998 312.85 37.33 283.59C43.2539 279.218 49.5516 275.376 56.15 272.11L56.62 271.64C60.9958 267.596 65.7247 263.951 70.75 260.75C85.52 251.2 110.46 239.88 140.82 245.01L889.64 366.12C889.64 366.12 916.99 389.23 880.64 402.66Z" fill="#272449"/>
<path id="Vector_2" d="M731.44 347.77L888.2 236.55L957.29 248.5L889.64 366.12C889.64 366.12 733.24 367.37 731.44 347.77Z" fill="#272449"/>
<path id="Vector_3" d="M336.78 280.2L649.03 192.63L699.36 203.15L558.31 266.6L514.23 315.92L336.78 280.2Z" fill="#272449"/>
<path id="Vector_4" d="M833.85 411.6C779.85 418.08 705.85 420.38 705.85 420.38C705.85 420.38 325.44 451.93 40.33 334.59C40.33 334.59 -1.13998 312.85 37.33 283.59L37.46 284.13C37.46 284.13 98.98 325.71 392.92 360.42L833.85 411.6Z" fill="#FFB800"/>
<path id="Vector_5" d="M88.08 290.22C81.42 290.33 66.16 279.16 56.67 271.64C61.0458 267.596 65.7746 263.951 70.8 260.75C78.45 266.62 92.06 276.12 99.63 275.75C110.56 275.3 98.11 290.04 88.08 290.22Z" fill="#FFB800"/>
<path id="Vector_6" d="M783.66 409.2L923.26 466.2L958.33 462.31L874.83 399.55C874.83 399.55 773.83 378 783.66 409.2Z" fill="#272449"/>
<path id="Vector_7" d="M722.29 606.23L632.66 610.92L380.66 441L333.88 409.45L311.16 394.12C353.79 358.12 527.72 407.77 527.72 407.77C531.05 410.58 532.11 415.25 531.96 420.41C531.67 430.07 527.13 441.41 525.38 445.49C524.96 446.49 524.7 447.02 524.7 447.02L722.29 606.23Z" fill="#272449"/>
</g>
<g id="clouds" filter="url(#filter1_d)">
<path id="Vector_8" d="M427.11 518.13L411.56 527.97L420.98 510.84C418.313 508.712 415.012 507.533 411.6 507.49H411.35C410.272 507.511 409.193 507.431 408.13 507.25L402.87 510.59L405.12 506.49C401.394 505.182 398.174 502.733 395.92 499.49L386.51 505.49L392.45 494.67C386.95 488.06 379.53 484.01 371.36 484.01C361.57 484.01 352.85 489.83 347.22 498.91C345.55 501.629 343.19 503.857 340.38 505.368C337.569 506.879 334.409 507.618 331.22 507.51H330.7C319.89 507.51 311.13 519.76 311.13 534.88C311.13 550 319.89 562.25 330.7 562.25C333.075 562.242 335.413 561.655 337.51 560.54C341.191 558.754 345.215 557.789 349.305 557.709C353.394 557.63 357.453 558.439 361.2 560.08C364.369 561.494 367.8 562.225 371.27 562.225C374.74 562.225 378.171 561.494 381.34 560.08C385.056 558.469 389.075 557.676 393.124 557.754C397.173 557.831 401.158 558.778 404.81 560.53C406.894 561.618 409.209 562.19 411.56 562.2C422.37 562.2 431.13 549.95 431.13 534.83C431.208 529.015 429.826 523.273 427.11 518.13Z" fill="#FFFEF8"/>
<path id="Vector_9" opacity="0.03" d="M397.86 558.18C392.213 557.112 386.376 557.745 381.09 560C377.924 561.418 374.494 562.15 371.025 562.15C367.556 562.15 364.126 561.418 360.96 560C357.214 558.354 353.155 557.543 349.064 557.622C344.974 557.702 340.949 558.67 337.27 560.46C335.168 561.572 332.828 562.159 330.45 562.17C320.85 562.17 312.86 552.49 311.2 539.73C313.121 538.335 314.751 536.579 316 534.56C321.63 525.49 330.35 519.67 340.14 519.67C349.93 519.67 358.56 525.37 364.18 534.37C365.857 537.083 368.207 539.316 371.002 540.852C373.796 542.389 376.941 543.177 380.13 543.14H380.38C388.02 543.12 394.64 549.24 397.86 558.18Z" fill="black"/>
<path id="Vector_10" d="M866.11 505.13L850.56 514.97L859.98 497.84C857.313 495.712 854.012 494.533 850.6 494.49H850.35C849.271 494.511 848.193 494.431 847.13 494.25L841.87 497.59L844.12 493.49C840.394 492.182 837.174 489.733 834.92 486.49L825.51 492.49L831.45 481.67C825.95 475.06 818.53 471.01 810.36 471.01C800.57 471.01 791.85 476.83 786.22 485.91C784.55 488.629 782.19 490.857 779.38 492.368C776.569 493.879 773.409 494.618 770.22 494.51H769.7C758.89 494.51 750.13 506.76 750.13 521.88C750.13 537 758.89 549.25 769.7 549.25C772.075 549.242 774.413 548.655 776.51 547.54C780.191 545.754 784.215 544.789 788.305 544.709C792.394 544.63 796.453 545.439 800.2 547.08C803.369 548.494 806.8 549.225 810.27 549.225C813.74 549.225 817.171 548.494 820.34 547.08C824.056 545.469 828.075 544.676 832.124 544.754C836.173 544.831 840.158 545.778 843.81 547.53C845.894 548.618 848.209 549.19 850.56 549.2C861.37 549.2 870.13 536.95 870.13 521.83C870.208 516.015 868.826 510.273 866.11 505.13V505.13Z" fill="#FFFEF8"/>
<path id="Vector_11" opacity="0.03" d="M836.86 545.18C831.213 544.112 825.376 544.745 820.09 547C816.924 548.418 813.494 549.15 810.025 549.15C806.556 549.15 803.126 548.418 799.96 547C796.214 545.354 792.155 544.543 788.064 544.622C783.974 544.702 779.949 545.67 776.27 547.46C774.168 548.572 771.828 549.159 769.45 549.17C759.85 549.17 751.86 539.49 750.2 526.73C752.121 525.335 753.751 523.579 755 521.56C760.63 512.49 769.35 506.67 779.14 506.67C788.93 506.67 797.56 512.37 803.18 521.37C804.862 524.09 807.219 526.328 810.024 527.865C812.828 529.402 815.983 530.186 819.18 530.14H819.43C827.02 530.12 833.64 536.24 836.86 545.18Z" fill="black"/>
<path id="Vector_12" d="M866.11 177.13L850.56 186.97L859.98 169.84C857.313 167.712 854.012 166.533 850.6 166.49H850.35C849.271 166.511 848.193 166.431 847.13 166.25L841.87 169.59L844.12 165.49C840.394 164.182 837.174 161.733 834.92 158.49L825.51 164.49L831.45 153.67C825.95 147.06 818.53 143.01 810.36 143.01C800.57 143.01 791.85 148.83 786.22 157.91C784.55 160.629 782.19 162.857 779.38 164.368C776.569 165.879 773.409 166.618 770.22 166.51H769.7C758.89 166.51 750.13 178.76 750.13 193.88C750.13 209 758.89 221.25 769.7 221.25C772.075 221.242 774.413 220.655 776.51 219.54C780.191 217.755 784.215 216.789 788.305 216.709C792.394 216.63 796.453 217.439 800.2 219.08C803.365 220.502 806.795 221.241 810.265 221.25C813.735 221.259 817.168 220.536 820.34 219.13C824.056 217.519 828.075 216.726 832.124 216.804C836.173 216.881 840.158 217.828 843.81 219.58C845.894 220.668 848.209 221.24 850.56 221.25C861.37 221.25 870.13 209 870.13 193.88C870.216 188.048 868.834 182.288 866.11 177.13V177.13Z" fill="#FFFEF8"/>
<path id="Vector_13" opacity="0.03" d="M836.86 217.18C831.213 216.112 825.376 216.745 820.09 219C816.924 220.418 813.494 221.15 810.025 221.15C806.556 221.15 803.126 220.418 799.96 219C796.214 217.354 792.155 216.543 788.064 216.622C783.974 216.702 779.949 217.67 776.27 219.46C774.168 220.572 771.828 221.159 769.45 221.17C759.85 221.17 751.86 211.49 750.2 198.73C752.121 197.335 753.751 195.579 755 193.56C760.63 184.49 769.35 178.67 779.14 178.67C788.93 178.67 797.56 184.37 803.18 193.37C804.862 196.09 807.219 198.328 810.024 199.865C812.828 201.402 815.983 202.186 819.18 202.14H819.43C827.02 202.12 833.64 208.24 836.86 217.18Z" fill="black"/>
<path id="Vector_14" d="M224.09 141.74L216.34 146.65L221.04 138.11C219.712 137.042 218.064 136.451 216.36 136.43H216.24C215.701 136.436 215.162 136.395 214.63 136.31L212.01 137.97L213.13 135.97C211.271 135.319 209.665 134.097 208.54 132.48L203.85 135.48L206.85 130.09C205.603 128.477 204.011 127.162 202.191 126.242C200.371 125.321 198.369 124.818 196.33 124.77C191.45 124.77 187.1 127.67 184.33 132.2C183.496 133.56 182.316 134.674 180.91 135.427C179.505 136.181 177.924 136.548 176.33 136.49H176.07C170.68 136.49 166.31 142.61 166.31 150.15C166.31 157.69 170.68 163.8 176.07 163.8C177.255 163.796 178.422 163.504 179.47 162.95C181.306 162.056 183.314 161.573 185.355 161.533C187.396 161.494 189.421 161.899 191.29 162.72C192.864 163.42 194.567 163.781 196.29 163.781C198.013 163.781 199.716 163.42 201.29 162.72C203.144 161.916 205.149 161.52 207.17 161.56C209.191 161.599 211.179 162.074 213 162.95C214.039 163.488 215.19 163.772 216.36 163.78C221.75 163.78 226.12 157.67 226.12 150.13C226.158 147.207 225.46 144.322 224.09 141.74Z" fill="#FFFEF8"/>
<path id="Vector_15" opacity="0.03" d="M209.5 161.72C206.682 161.18 203.766 161.497 201.13 162.63C199.555 163.326 197.852 163.687 196.13 163.69C194.388 163.69 192.667 163.318 191.08 162.6C189.21 161.782 187.184 161.38 185.144 161.421C183.103 161.463 181.095 161.947 179.26 162.84C178.216 163.394 177.052 163.686 175.87 163.69C171.08 163.69 167.09 158.86 166.26 152.5C167.215 151.799 168.03 150.924 168.66 149.92C171.46 145.39 175.81 142.49 180.66 142.49C185.51 142.49 189.84 145.36 192.66 149.83C193.5 151.189 194.68 152.307 196.082 153.073C197.485 153.839 199.062 154.227 200.66 154.2H200.79C204.56 154.2 207.89 157.26 209.5 161.72Z" fill="black"/>
<path id="Vector_16" d="M914.09 630.74L906.34 635.65L911.04 627.11C909.712 626.042 908.064 625.451 906.36 625.43H906.24C905.701 625.436 905.162 625.395 904.63 625.31L902.01 626.97L903.13 624.97C901.271 624.319 899.665 623.097 898.54 621.48L893.85 624.48L896.85 619.09C895.603 617.477 894.011 616.162 892.191 615.242C890.371 614.321 888.369 613.819 886.33 613.77C881.45 613.77 877.1 616.67 874.33 621.2C873.496 622.56 872.316 623.674 870.91 624.427C869.505 625.181 867.924 625.548 866.33 625.49H866.07C860.68 625.49 856.31 631.61 856.31 639.15C856.31 646.69 860.68 652.8 866.07 652.8C867.255 652.796 868.422 652.504 869.47 651.95C871.306 651.056 873.314 650.573 875.355 650.533C877.396 650.494 879.421 650.898 881.29 651.72C882.864 652.42 884.567 652.781 886.29 652.781C888.013 652.781 889.716 652.42 891.29 651.72C893.144 650.916 895.149 650.52 897.17 650.56C899.191 650.599 901.179 651.074 903 651.95C904.039 652.488 905.19 652.772 906.36 652.78C911.75 652.78 916.12 646.67 916.12 639.13C916.158 636.207 915.46 633.322 914.09 630.74V630.74Z" fill="#FFFEF8"/>
<path id="Vector_17" opacity="0.03" d="M899.5 650.72C896.682 650.18 893.766 650.497 891.13 651.63C889.555 652.326 887.852 652.687 886.13 652.69C884.388 652.689 882.667 652.318 881.08 651.6C879.21 650.782 877.184 650.38 875.144 650.421C873.103 650.463 871.095 650.947 869.26 651.84C868.216 652.394 867.052 652.686 865.87 652.69C861.08 652.69 857.09 647.86 856.26 641.5C857.215 640.799 858.03 639.924 858.66 638.92C861.46 634.39 865.81 631.49 870.66 631.49C875.51 631.49 879.84 634.36 882.66 638.83C883.5 640.189 884.68 641.307 886.082 642.073C887.485 642.839 889.062 643.227 890.66 643.2H890.79C894.56 643.2 897.89 646.26 899.5 650.72Z" fill="black"/>
<path id="Vector_18" d="M194.09 656.74L186.34 661.65L191.04 653.11C189.712 652.042 188.064 651.451 186.36 651.43H186.24C185.701 651.436 185.162 651.395 184.63 651.31L182.01 652.97L183.13 650.97C181.271 650.319 179.665 649.097 178.54 647.48L173.85 650.48L176.85 645.09C175.603 643.477 174.011 642.162 172.191 641.242C170.371 640.321 168.369 639.819 166.33 639.77C161.45 639.77 157.1 642.67 154.33 647.2C153.496 648.56 152.316 649.674 150.91 650.427C149.505 651.181 147.924 651.548 146.33 651.49H146.07C140.68 651.49 136.31 657.61 136.31 665.15C136.31 672.69 140.68 678.8 146.07 678.8C147.255 678.796 148.422 678.504 149.47 677.95C151.306 677.056 153.314 676.573 155.355 676.533C157.396 676.494 159.421 676.898 161.29 677.72C162.864 678.42 164.567 678.781 166.29 678.781C168.013 678.781 169.716 678.42 171.29 677.72C173.144 676.916 175.149 676.52 177.17 676.56C179.191 676.599 181.179 677.074 183 677.95C184.039 678.488 185.19 678.772 186.36 678.78C191.75 678.78 196.12 672.67 196.12 665.13C196.158 662.207 195.46 659.322 194.09 656.74V656.74Z" fill="#FFFEF8"/>
<path id="Vector_19" opacity="0.03" d="M179.5 676.72C176.682 676.18 173.766 676.497 171.13 677.63C169.555 678.326 167.852 678.687 166.13 678.69C164.388 678.689 162.667 678.318 161.08 677.6C159.21 676.782 157.184 676.38 155.144 676.421C153.103 676.463 151.095 676.947 149.26 677.84C148.216 678.394 147.052 678.686 145.87 678.69C141.08 678.69 137.09 673.86 136.26 667.5C137.215 666.799 138.03 665.924 138.66 664.92C141.46 660.39 145.81 657.49 150.66 657.49C155.51 657.49 159.84 660.36 162.66 664.83C163.5 666.189 164.68 667.307 166.082 668.073C167.485 668.839 169.062 669.227 170.66 669.2H170.79C174.56 669.2 177.89 672.26 179.5 676.72Z" fill="black"/>
<path id="Vector_20" d="M552.11 40.13L536.56 49.97L545.98 32.84C543.313 30.7118 540.012 29.533 536.6 29.49H536.35C535.271 29.5111 534.193 29.4307 533.13 29.25L527.87 32.59L530.12 28.49C526.394 27.182 523.174 24.7326 520.92 21.49L511.51 27.49L517.45 16.67C511.95 10.06 504.53 6.01 496.36 6.01C486.57 6.01 477.85 11.83 472.22 20.91C470.55 23.6291 468.19 25.8573 465.38 27.368C462.569 28.8786 459.409 29.6177 456.22 29.51H455.7C444.89 29.51 436.13 41.76 436.13 56.88C436.13 72 444.89 84.25 455.7 84.25C458.075 84.2425 460.413 83.6555 462.51 82.54C466.191 80.7545 470.215 79.7887 474.305 79.7093C478.394 79.6299 482.453 80.4387 486.2 82.08C489.365 83.502 492.795 84.2414 496.265 84.25C499.735 84.2586 503.168 83.5363 506.34 82.13C510.056 80.5195 514.075 79.7262 518.124 79.8038C522.173 79.8814 526.158 80.8282 529.81 82.58C531.894 83.6677 534.209 84.2404 536.56 84.25C547.37 84.25 556.13 72 556.13 56.88C556.216 51.0479 554.834 45.2878 552.11 40.13V40.13Z" fill="#FFFEF8"/>
<path id="Vector_21" opacity="0.03" d="M522.86 80.18C517.213 79.1116 511.376 79.7451 506.09 82C502.924 83.4176 499.494 84.1504 496.025 84.1504C492.556 84.1504 489.126 83.4176 485.96 82C482.214 80.3541 478.155 79.5428 474.064 79.6222C469.974 79.7016 465.949 80.6699 462.27 82.46C460.168 83.5722 457.828 84.1589 455.45 84.17C445.85 84.17 437.86 74.49 436.2 61.73C438.121 60.3351 439.751 58.579 441 56.56C446.63 47.49 455.35 41.67 465.14 41.67C474.93 41.67 483.56 47.37 489.18 56.37C490.862 59.09 493.219 61.3277 496.024 62.8647C498.828 64.4017 501.983 65.1857 505.18 65.14H505.43C513.02 65.12 519.64 71.24 522.86 80.18Z" fill="black"/>
<path id="Vector_22" d="M1082.09 211.74L1074.34 216.65L1079.04 208.11C1077.71 207.042 1076.06 206.451 1074.36 206.43H1074.24C1073.7 206.436 1073.16 206.395 1072.63 206.31L1070.01 207.97L1071.13 205.97C1069.27 205.319 1067.66 204.097 1066.54 202.48L1061.85 205.48L1064.85 200.09C1063.6 198.477 1062.01 197.162 1060.19 196.242C1058.37 195.321 1056.37 194.818 1054.33 194.77C1049.45 194.77 1045.1 197.67 1042.33 202.2C1041.5 203.56 1040.32 204.674 1038.91 205.427C1037.5 206.181 1035.92 206.548 1034.33 206.49H1034.07C1028.68 206.49 1024.31 212.61 1024.31 220.15C1024.31 227.69 1028.68 233.8 1034.07 233.8C1035.26 233.796 1036.42 233.504 1037.47 232.95C1039.31 232.056 1041.31 231.573 1043.35 231.533C1045.4 231.494 1047.42 231.899 1049.29 232.72C1050.86 233.42 1052.57 233.781 1054.29 233.781C1056.01 233.781 1057.72 233.42 1059.29 232.72C1061.14 231.916 1063.15 231.52 1065.17 231.56C1067.19 231.599 1069.18 232.073 1071 232.95C1072.04 233.488 1073.19 233.772 1074.36 233.78C1079.75 233.78 1084.12 227.67 1084.12 220.13C1084.16 217.207 1083.46 214.322 1082.09 211.74V211.74Z" fill="#FFFEF8"/>
<path id="Vector_23" opacity="0.03" d="M1067.5 231.72C1064.68 231.18 1061.77 231.497 1059.13 232.63C1057.55 233.326 1055.85 233.687 1054.13 233.69C1052.41 233.682 1050.7 233.311 1049.13 232.6C1047.26 231.782 1045.23 231.38 1043.19 231.421C1041.15 231.463 1039.15 231.947 1037.31 232.84C1036.27 233.394 1035.1 233.686 1033.92 233.69C1029.13 233.69 1025.14 228.86 1024.31 222.5C1025.27 221.799 1026.08 220.924 1026.71 219.92C1029.51 215.39 1033.86 212.49 1038.71 212.49C1043.56 212.49 1047.89 215.36 1050.71 219.83C1051.55 221.182 1052.72 222.295 1054.11 223.06C1055.5 223.826 1057.07 224.219 1058.66 224.2H1058.79C1062.56 224.2 1065.89 227.26 1067.5 231.72Z" fill="black"/>
</g>
</g>
<defs>
<filter id="filter0_d" x="0.976807" y="176.63" width="977.353" height="458.29" filterUnits="userSpaceOnUse" color-interpolation-filters="sRGB">
<feFlood flood-opacity="0" result="BackgroundImageFix"/>
<feColorMatrix in="SourceAlpha" type="matrix" values="0 0 0 0 0 0 0 0 0 0 0 0 0 0 0 0 0 0 127 0"/>
<feOffset dy="4"/>
<feGaussianBlur stdDeviation="10"/>
<feColorMatrix type="matrix" values="0 0 0 0 0 0 0 0 0 0 0 0 0 0 0 0 0 0 0.25 0"/>
<feBlend mode="normal" in2="BackgroundImageFix" result="effect1_dropShadow"/>
<feBlend mode="normal" in="SourceGraphic" in2="effect1_dropShadow" result="shape"/>
</filter>
<filter id="filter1_d" x="126.26" y="0.0100002" width="967.862" height="692.79" filterUnits="userSpaceOnUse" color-interpolation-filters="sRGB">
<feFlood flood-opacity="0" result="BackgroundImageFix"/>
<feColorMatrix in="SourceAlpha" type="matrix" values="0 0 0 0 0 0 0 0 0 0 0 0 0 0 0 0 0 0 127 0"/>
<feOffset dy="4"/>
<feGaussianBlur stdDeviation="5"/>
<feColorMatrix type="matrix" values="0 0 0 0 0 0 0 0 0 0 0 0 0 0 0 0 0 0 0.25 0"/>
<feBlend mode="normal" in2="BackgroundImageFix" result="effect1_dropShadow"/>
<feBlend mode="normal" in="SourceGraphic" in2="effect1_dropShadow" result="shape"/>
</filter>
</defs>
</svg>
