<svg width="376" height="376" viewBox="0 0 376 376" fill="none" xmlns="http://www.w3.org/2000/svg">
<path fill-rule="evenodd" clip-rule="evenodd" d="M18.4264 145.574C-5.00505 169.005 -5.00505 206.995 18.4264 230.426L145.706 357.706C169.137 381.137 207.127 381.137 230.558 357.706L357.838 230.426C381.269 206.995 381.269 169.005 357.838 145.574L230.558 18.2944C207.127 -5.1371 169.137 -5.1371 145.706 18.2944L18.4264 145.574ZM139.455 128C135.538 128 132.364 130.947 132.364 134.582V211.608C132.364 214.369 130.125 216.608 127.364 216.608H103C100.239 216.608 98 218.846 98 221.608V243C98 245.761 100.239 248 103 248H205.364C208.125 248 210.364 245.761 210.364 243V221.608C210.364 218.846 208.125 216.608 205.364 216.608H151.545C148.784 216.608 146.545 214.369 146.545 211.608V146.165C146.545 143.403 148.784 141.165 151.545 141.165H258.818C261.58 141.165 263.818 138.926 263.818 136.165V133C263.818 130.239 261.58 128 258.818 128H139.455ZM228.455 156.861C225.693 156.861 223.455 159.099 223.455 161.861V221.439V243C223.455 245.761 225.693 248 228.455 248H273C275.761 248 278 245.761 278 243V221.439V161.861C278 159.099 275.761 156.861 273 156.861H228.455ZM234.515 163.11C231.754 163.11 229.515 165.349 229.515 168.11V219.564C229.515 222.326 231.754 224.564 234.515 224.564H266.939C269.701 224.564 271.939 222.326 271.939 219.564V168.11C271.939 165.349 269.701 163.11 266.939 163.11H234.515ZM257.394 236.542C257.394 239.706 254.409 242.271 250.727 242.271C247.045 242.271 244.061 239.706 244.061 236.542C244.061 233.379 247.045 230.814 250.727 230.814C254.409 230.814 257.394 233.379 257.394 236.542Z" fill="#25B6BF"/>
</svg>
