<svg width="500" height="359" viewBox="0 0 500 359" fill="none" xmlns="http://www.w3.org/2000/svg">
<path opacity="0.1" d="M322.033 39.2462C302.153 53.0825 276.364 52.188 253.764 44.9905C231.163 37.793 210.407 24.9693 188.374 15.8555C170.018 8.24626 150.689 3.23615 130.948 0.970179C102.885 -2.20851 71.5478 1.66495 51.9943 24.0384C30.2203 48.9548 31.8913 93.8878 55.4409 116.761C67.42 128.395 83.1091 134.103 96.7639 143.185C110.419 152.267 123.102 167.352 121.944 184.885C120.863 201.114 108.321 213.566 95.3471 221.381C85.3206 227.42 72.9646 234.014 71.7567 246.524C70.5896 258.626 80.9749 268.112 90.8924 273.502C123.247 291.098 163.094 290.93 195.335 273.048C206.833 266.691 217.404 258.194 229.461 253.227C261.125 240.18 296.013 253.313 329.539 258.113C358.025 262.17 387.05 260.07 414.656 251.955C431.262 247.078 447.927 239.626 459.589 225.74C467.999 215.75 473.239 203.058 478.161 190.547C483.405 177.203 488.447 163.765 493.287 150.232C496.189 142.109 499.05 133.83 499.799 125.139C501.161 109.386 495.431 93.8061 487.634 80.5283C469.12 48.9729 437.933 26.7811 404.18 21.1458C370.426 15.5104 334.662 26.5178 308.469 50.6077" fill="#04C2C9"/>
<path opacity="0.1" d="M79.9214 330.314C124.061 330.314 159.843 324.217 159.843 316.696C159.843 309.175 124.061 303.077 79.9214 303.077C35.782 303.077 0 309.175 0 316.696C0 324.217 35.782 330.314 79.9214 330.314Z" fill="#04C2C9"/>
<path d="M450.716 83.5389H116.599C108.99 83.5389 102.822 89.7073 102.822 97.3163V241.225C102.822 248.834 108.99 255.002 116.599 255.002H450.716C458.325 255.002 464.493 248.834 464.493 241.225V97.3163C464.493 89.7073 458.325 83.5389 450.716 83.5389Z" fill="#04C2C9"/>
<g opacity="0.2">
<path opacity="0.2" d="M176.949 223.833H118.456C116.79 223.833 115.14 223.505 113.601 222.867C112.062 222.229 110.663 221.295 109.485 220.117C108.307 218.938 107.372 217.54 106.734 216C106.097 214.461 105.769 212.811 105.769 211.145V127.405C105.768 125.739 106.096 124.088 106.733 122.549C107.371 121.009 108.305 119.61 109.483 118.432C110.662 117.254 112.061 116.319 113.6 115.682C115.14 115.045 116.79 114.717 118.456 114.717H176.949V223.833Z" fill="white"/>
</g>
<g opacity="0.2">
<path opacity="0.2" d="M448.849 223.833H390.361V114.717H448.849C450.516 114.717 452.166 115.045 453.705 115.682C455.245 116.319 456.644 117.254 457.822 118.432C459 119.61 459.935 121.009 460.572 122.549C461.21 124.088 461.537 125.739 461.537 127.405V211.145C461.537 212.811 461.209 214.461 460.571 216C459.933 217.54 458.999 218.938 457.821 220.117C456.643 221.295 455.244 222.229 453.705 222.867C452.165 223.505 450.515 223.833 448.849 223.833Z" fill="white"/>
</g>
<g opacity="0.2">
<path opacity="0.2" d="M390.361 114.713H319.186V223.828H390.361V114.713Z" fill="white"/>
</g>
<g opacity="0.2">
<path opacity="0.2" d="M319.186 114.713H248.01V223.828H319.186V114.713Z" fill="white"/>
</g>
<g opacity="0.2">
<path opacity="0.2" d="M248.01 114.713H176.835V223.828H248.01V114.713Z" fill="#04C2C9"/>
</g>
<path d="M217.291 163.038C217.017 163.038 216.755 162.929 216.562 162.736C216.369 162.543 216.26 162.281 216.26 162.007V159.033C216.26 158.897 216.287 158.763 216.338 158.638C216.39 158.513 216.466 158.4 216.562 158.304C216.658 158.208 216.771 158.132 216.896 158.08C217.021 158.029 217.155 158.002 217.291 158.002C217.426 158.002 217.56 158.029 217.685 158.08C217.81 158.132 217.924 158.208 218.02 158.304C218.115 158.4 218.191 158.513 218.243 158.638C218.295 158.763 218.322 158.897 218.322 159.033V162.016C218.319 162.288 218.209 162.548 218.016 162.739C217.823 162.931 217.563 163.038 217.291 163.038V163.038Z" fill="white"/>
<path d="M212.069 165.199C211.934 165.2 211.8 165.173 211.676 165.122C211.551 165.071 211.438 164.995 211.342 164.9L209.235 162.788C209.13 162.695 209.045 162.581 208.986 162.454C208.927 162.327 208.894 162.189 208.889 162.049C208.885 161.909 208.91 161.769 208.961 161.638C209.013 161.508 209.091 161.389 209.19 161.29C209.289 161.191 209.407 161.113 209.538 161.06C209.668 161.008 209.807 160.984 209.948 160.987C210.088 160.991 210.226 161.024 210.353 161.083C210.481 161.142 210.595 161.226 210.688 161.331L212.8 163.442C212.943 163.587 213.041 163.77 213.08 163.97C213.119 164.17 213.098 164.377 213.02 164.565C212.942 164.753 212.81 164.913 212.641 165.026C212.471 165.139 212.272 165.199 212.069 165.199V165.199Z" fill="white"/>
<path d="M224.624 177.751C224.351 177.751 224.088 177.644 223.893 177.451L221.786 175.34C221.682 175.246 221.597 175.132 221.538 175.005C221.479 174.877 221.447 174.739 221.443 174.599C221.439 174.459 221.464 174.319 221.516 174.189C221.568 174.059 221.646 173.94 221.746 173.841C221.845 173.742 221.964 173.664 222.094 173.613C222.225 173.561 222.364 173.537 222.505 173.541C222.645 173.545 222.783 173.578 222.91 173.637C223.037 173.697 223.151 173.781 223.244 173.886L225.351 175.993C225.494 176.138 225.592 176.321 225.631 176.52C225.67 176.72 225.65 176.926 225.572 177.114C225.495 177.302 225.363 177.462 225.195 177.576C225.026 177.689 224.828 177.75 224.624 177.751V177.751Z" fill="white"/>
<path d="M227.658 170.422H224.674C224.401 170.422 224.139 170.313 223.945 170.12C223.752 169.926 223.644 169.664 223.644 169.391C223.644 169.117 223.752 168.855 223.945 168.662C224.139 168.469 224.401 168.36 224.674 168.36H227.658C227.931 168.36 228.193 168.469 228.387 168.662C228.58 168.855 228.689 169.117 228.689 169.391C228.689 169.664 228.58 169.926 228.387 170.12C228.193 170.313 227.931 170.422 227.658 170.422V170.422Z" fill="white"/>
<path d="M222.513 165.199C222.31 165.199 222.111 165.138 221.943 165.024C221.774 164.911 221.643 164.75 221.565 164.563C221.487 164.375 221.467 164.168 221.506 163.969C221.546 163.77 221.643 163.586 221.786 163.442L223.893 161.331C223.989 161.233 224.102 161.155 224.228 161.102C224.353 161.048 224.488 161.02 224.625 161.019C224.761 161.018 224.897 161.045 225.023 161.096C225.149 161.148 225.264 161.225 225.36 161.321C225.457 161.418 225.533 161.532 225.585 161.659C225.637 161.785 225.663 161.92 225.662 162.057C225.661 162.193 225.633 162.328 225.58 162.454C225.527 162.579 225.449 162.693 225.351 162.788L223.244 164.9C223.049 165.092 222.786 165.199 222.513 165.199V165.199Z" fill="white"/>
<path d="M222.767 169.391C222.77 168.235 222.406 167.108 221.726 166.172C221.046 165.237 220.087 164.542 218.986 164.188C217.885 163.835 216.701 163.84 215.603 164.204C214.506 164.567 213.553 165.271 212.881 166.212C211.907 165.66 210.823 165.328 209.706 165.24C208.589 165.152 207.466 165.311 206.417 165.704C205.368 166.097 204.418 166.716 203.634 167.516C202.849 168.316 202.25 169.278 201.879 170.335C201.288 170.268 200.691 170.303 200.112 170.44C198.791 170.755 197.648 171.581 196.935 172.737C196.222 173.893 195.996 175.284 196.307 176.606C196.571 177.732 197.209 178.734 198.116 179.451C199.023 180.167 200.146 180.556 201.302 180.553H215.047C215.506 180.551 215.963 180.498 216.41 180.394C217.898 180.04 219.191 179.124 220.02 177.839C220.848 176.553 221.148 174.997 220.855 173.496C221.45 172.989 221.928 172.36 222.258 171.651C222.588 170.943 222.761 170.172 222.767 169.391V169.391ZM215.956 178.387C215.658 178.459 215.353 178.494 215.047 178.491H201.279C200.531 178.487 199.81 178.208 199.252 177.709C198.695 177.21 198.339 176.524 198.253 175.78C198.166 175.037 198.355 174.288 198.782 173.674C199.21 173.059 199.848 172.623 200.575 172.447C200.807 172.391 201.045 172.362 201.284 172.361C201.616 172.361 201.946 172.416 202.26 172.524C202.399 172.571 202.546 172.587 202.691 172.573C202.837 172.559 202.978 172.515 203.105 172.442C203.231 172.37 203.341 172.271 203.426 172.153C203.511 172.035 203.571 171.9 203.6 171.757C203.832 170.635 204.403 169.612 205.234 168.825C206.066 168.038 207.119 167.525 208.251 167.354C209.384 167.183 210.541 167.364 211.568 167.871C212.595 168.378 213.441 169.187 213.994 170.19C214.004 170.204 214.012 170.219 214.017 170.235C214.109 170.403 214.245 170.542 214.411 170.637C214.577 170.732 214.766 170.78 214.957 170.776H215.07C215.728 170.772 216.376 170.937 216.951 171.255C217.527 171.573 218.011 172.033 218.358 172.592C218.567 172.945 218.72 173.328 218.812 173.727C218.876 174.006 218.911 174.291 218.916 174.577C218.928 175.453 218.642 176.308 218.104 177C217.566 177.693 216.808 178.182 215.956 178.387ZM218.717 169.968C217.8 169.255 216.695 168.824 215.538 168.728C215.243 168.272 214.901 167.849 214.516 167.465C214.77 167.092 215.096 166.773 215.475 166.528C215.854 166.282 216.278 166.114 216.722 166.035C217.166 165.955 217.622 165.965 218.063 166.063C218.503 166.162 218.92 166.348 219.288 166.61C219.655 166.871 219.967 167.204 220.205 167.588C220.443 167.972 220.601 168.399 220.672 168.845C220.742 169.291 220.722 169.747 220.614 170.185C220.506 170.623 220.312 171.036 220.043 171.398C219.682 170.851 219.234 170.368 218.717 169.968V169.968Z" fill="white"/>
<g opacity="0.5">
<path opacity="0.5" d="M298.801 168.115C298.515 166.892 297.846 165.792 296.891 164.975C295.936 164.158 294.746 163.667 293.493 163.574C292.824 162.539 291.915 161.681 290.843 161.073C289.772 160.465 288.569 160.124 287.338 160.079C286.107 160.034 284.883 160.288 283.77 160.817C282.657 161.346 281.689 162.136 280.946 163.12C279.423 163.192 277.956 163.717 276.732 164.628C275.509 165.539 274.586 166.794 274.08 168.233C273.388 168.155 272.687 168.22 272.021 168.422C271.354 168.625 270.736 168.961 270.203 169.41C269.671 169.86 269.236 170.413 268.925 171.036C268.613 171.659 268.432 172.339 268.392 173.035C268.352 173.73 268.455 174.426 268.693 175.081C268.931 175.736 269.3 176.335 269.778 176.842C270.255 177.349 270.831 177.754 271.47 178.031C272.109 178.308 272.798 178.452 273.495 178.455H287.249C287.708 178.454 288.165 178.4 288.611 178.296C289.411 178.106 290.162 177.752 290.817 177.256C291.472 176.761 292.017 176.134 292.417 175.417H293.025C293.484 175.416 293.941 175.362 294.388 175.258C295.147 175.079 295.864 174.753 296.496 174.297C297.129 173.842 297.666 173.265 298.076 172.602C298.486 171.938 298.761 171.201 298.886 170.431C299.01 169.661 298.982 168.874 298.801 168.115V168.115ZM289.824 175.38C289.353 175.817 288.78 176.129 288.157 176.289C287.86 176.358 287.555 176.393 287.249 176.393H273.472C272.72 176.393 271.995 176.117 271.433 175.617C270.872 175.118 270.513 174.429 270.426 173.682C270.34 172.935 270.53 172.183 270.962 171.568C271.394 170.952 272.036 170.517 272.768 170.344C273.217 170.244 273.682 170.244 274.13 170.344C274.241 170.369 274.35 170.401 274.457 170.44C274.597 170.489 274.746 170.507 274.894 170.494C275.041 170.481 275.185 170.436 275.314 170.363C275.443 170.29 275.555 170.19 275.642 170.07C275.729 169.95 275.79 169.813 275.82 169.668C276.084 168.408 276.773 167.277 277.772 166.464C278.77 165.652 280.018 165.207 281.305 165.204C281.562 165.204 281.818 165.222 282.072 165.259C282.945 165.379 283.776 165.703 284.5 166.205C285.223 166.707 285.818 167.372 286.237 168.147C286.326 168.315 286.461 168.456 286.627 168.551C286.792 168.647 286.981 168.694 287.172 168.687H287.249C288.031 168.689 288.794 168.928 289.437 169.373C290.079 169.818 290.572 170.447 290.849 171.178C291.126 171.909 291.175 172.707 290.989 173.467C290.802 174.226 290.39 174.911 289.806 175.43L289.824 175.38ZM293.911 173.214C293.647 173.278 293.378 173.313 293.107 173.319C293.21 172.591 293.175 171.85 293.003 171.135C292.716 169.911 292.047 168.811 291.092 167.995C290.137 167.178 288.947 166.687 287.694 166.594C286.706 165.065 285.205 163.938 283.462 163.415C284.099 162.883 284.846 162.5 285.65 162.293C286.453 162.086 287.292 162.06 288.107 162.218C288.921 162.375 289.691 162.712 290.359 163.203C291.028 163.694 291.579 164.328 291.972 165.059C292.062 165.228 292.198 165.368 292.365 165.463C292.531 165.559 292.72 165.606 292.912 165.599H293.025C293.973 165.595 294.888 165.94 295.598 166.567C296.308 167.194 296.762 168.061 296.875 169.002C296.987 169.943 296.749 170.892 296.207 171.668C295.664 172.445 294.855 172.995 293.933 173.214H293.911Z" fill="white"/>
</g>
<g opacity="0.5">
<path opacity="0.5" d="M430.744 177.86L430.081 177.474L430.744 177.092C430.804 177.059 430.856 177.014 430.899 176.96C430.941 176.906 430.972 176.844 430.99 176.778C431.009 176.712 431.014 176.643 431.005 176.575C430.997 176.507 430.976 176.441 430.942 176.382C430.908 176.322 430.863 176.27 430.809 176.227C430.755 176.185 430.693 176.154 430.627 176.136C430.561 176.117 430.493 176.112 430.425 176.121C430.357 176.129 430.291 176.15 430.231 176.184L429.564 176.57V175.834C429.57 175.763 429.562 175.69 429.539 175.622C429.516 175.554 429.48 175.491 429.431 175.438C429.383 175.384 429.323 175.342 429.258 175.313C429.192 175.283 429.12 175.268 429.048 175.268C428.976 175.268 428.905 175.283 428.839 175.313C428.773 175.342 428.714 175.384 428.666 175.438C428.617 175.491 428.58 175.554 428.557 175.622C428.534 175.69 428.526 175.763 428.533 175.834V176.593L427.874 176.211C427.754 176.143 427.611 176.126 427.478 176.163C427.345 176.2 427.232 176.288 427.164 176.409C427.096 176.529 427.078 176.672 427.115 176.805C427.152 176.938 427.241 177.052 427.361 177.12L428.02 177.496L427.361 177.878C427.303 177.912 427.251 177.957 427.21 178.011C427.169 178.064 427.139 178.126 427.122 178.191C427.104 178.257 427.1 178.325 427.109 178.392C427.119 178.459 427.141 178.523 427.175 178.582C427.221 178.661 427.287 178.727 427.367 178.773C427.447 178.818 427.537 178.842 427.629 178.841C427.719 178.842 427.808 178.817 427.884 178.768L428.542 178.391V179.158C428.554 179.287 428.614 179.406 428.709 179.493C428.804 179.58 428.928 179.628 429.057 179.628C429.186 179.628 429.311 179.58 429.406 179.493C429.501 179.406 429.561 179.287 429.573 179.158V178.391L430.24 178.772C430.316 178.821 430.405 178.847 430.495 178.845C430.586 178.845 430.676 178.821 430.756 178.776C430.836 178.731 430.902 178.665 430.949 178.586C430.985 178.526 431.009 178.458 431.018 178.388C431.028 178.318 431.023 178.247 431.004 178.179C430.985 178.111 430.952 178.047 430.907 177.992C430.862 177.938 430.807 177.892 430.744 177.86Z" fill="white"/>
<path opacity="0.5" d="M427.643 173.564L426.98 173.183L427.643 172.797C427.701 172.763 427.753 172.719 427.794 172.665C427.835 172.612 427.865 172.551 427.882 172.486C427.899 172.421 427.904 172.353 427.894 172.286C427.885 172.22 427.863 172.155 427.829 172.097C427.796 172.038 427.751 171.986 427.697 171.945C427.644 171.903 427.582 171.873 427.517 171.855C427.451 171.837 427.383 171.833 427.316 171.842C427.249 171.85 427.184 171.872 427.125 171.907L426.462 172.293V171.53C426.45 171.401 426.391 171.282 426.295 171.195C426.2 171.108 426.076 171.06 425.947 171.06C425.818 171.06 425.694 171.108 425.598 171.195C425.503 171.282 425.443 171.401 425.431 171.53V172.288L424.773 171.911C424.713 171.877 424.648 171.856 424.58 171.847C424.512 171.839 424.443 171.844 424.377 171.863C424.311 171.881 424.249 171.912 424.195 171.954C424.141 171.997 424.096 172.049 424.062 172.109C424.029 172.168 424.007 172.234 423.999 172.302C423.99 172.37 423.996 172.439 424.014 172.505C424.032 172.571 424.063 172.633 424.106 172.687C424.148 172.74 424.2 172.786 424.26 172.819L424.918 173.201L424.26 173.578C424.159 173.633 424.08 173.72 424.035 173.826C423.99 173.932 423.982 174.05 424.011 174.161C424.041 174.271 424.107 174.369 424.199 174.438C424.291 174.507 424.404 174.543 424.519 174.54C424.608 174.54 424.696 174.517 424.773 174.472L425.431 174.091V174.863C425.443 174.991 425.503 175.11 425.598 175.197C425.694 175.284 425.818 175.332 425.947 175.332C426.076 175.332 426.2 175.284 426.295 175.197C426.391 175.11 426.45 174.991 426.462 174.863V174.091L427.112 174.472C427.191 174.516 427.28 174.54 427.37 174.54C427.483 174.539 427.593 174.501 427.682 174.432C427.771 174.363 427.835 174.266 427.865 174.157C427.894 174.048 427.887 173.932 427.844 173.828C427.802 173.723 427.726 173.635 427.629 173.578L427.643 173.564Z" fill="white"/>
<path opacity="0.5" d="M424.55 177.86L423.887 177.474L424.55 177.092C424.61 177.059 424.662 177.014 424.705 176.96C424.747 176.906 424.778 176.844 424.796 176.778C424.815 176.712 424.82 176.643 424.812 176.575C424.803 176.507 424.782 176.441 424.748 176.382C424.714 176.322 424.669 176.27 424.615 176.227C424.561 176.185 424.5 176.154 424.434 176.136C424.368 176.117 424.299 176.112 424.231 176.121C424.163 176.129 424.097 176.15 424.037 176.184L423.37 176.57V175.834C423.377 175.763 423.368 175.69 423.345 175.622C423.323 175.554 423.286 175.491 423.237 175.438C423.189 175.384 423.13 175.342 423.064 175.313C422.998 175.283 422.926 175.268 422.854 175.268C422.782 175.268 422.711 175.283 422.645 175.313C422.579 175.342 422.52 175.384 422.472 175.438C422.423 175.491 422.386 175.554 422.363 175.622C422.341 175.69 422.332 175.763 422.339 175.834V176.593L421.685 176.211C421.565 176.143 421.422 176.125 421.288 176.161C421.154 176.198 421.041 176.286 420.972 176.407C420.903 176.527 420.885 176.67 420.922 176.804C420.959 176.937 421.047 177.051 421.167 177.12L421.826 177.496L421.167 177.878C421.109 177.912 421.057 177.957 421.016 178.011C420.975 178.064 420.945 178.126 420.928 178.191C420.911 178.257 420.906 178.325 420.915 178.392C420.925 178.459 420.947 178.523 420.981 178.582C421.027 178.661 421.093 178.727 421.173 178.773C421.253 178.818 421.343 178.842 421.435 178.841C421.527 178.84 421.616 178.815 421.694 178.768L422.348 178.391V179.158C422.36 179.287 422.42 179.406 422.515 179.493C422.61 179.58 422.735 179.628 422.863 179.628C422.992 179.628 423.117 179.58 423.212 179.493C423.307 179.406 423.367 179.287 423.379 179.158V178.391L424.046 178.772C424.122 178.821 424.211 178.847 424.301 178.845C424.414 178.844 424.523 178.806 424.612 178.737C424.701 178.667 424.766 178.571 424.795 178.462C424.824 178.353 424.817 178.237 424.775 178.133C424.732 178.028 424.657 177.94 424.56 177.882L424.55 177.86Z" fill="white"/>
<path opacity="0.5" d="M438.21 166.934C437.92 165.712 437.25 164.614 436.296 163.798C435.342 162.982 434.153 162.49 432.901 162.393C432.124 161.192 431.025 160.232 429.73 159.622C428.435 159.013 426.995 158.778 425.573 158.945C424.151 159.112 422.805 159.674 421.686 160.566C420.567 161.459 419.72 162.647 419.242 163.996C418.55 163.919 417.849 163.983 417.182 164.186C416.516 164.388 415.898 164.724 415.365 165.174C414.833 165.623 414.398 166.176 414.086 166.799C413.775 167.422 413.594 168.102 413.554 168.798C413.514 169.493 413.616 170.19 413.855 170.844C414.093 171.499 414.462 172.098 414.939 172.605C415.417 173.112 415.993 173.517 416.632 173.794C417.271 174.072 417.96 174.216 418.656 174.218H420.3C420.573 174.218 420.836 174.109 421.029 173.916C421.222 173.723 421.331 173.46 421.331 173.187C421.331 172.914 421.222 172.652 421.029 172.458C420.836 172.265 420.573 172.156 420.3 172.156H418.643C417.952 172.158 417.282 171.925 416.741 171.496C416.2 171.067 415.82 170.468 415.664 169.795C415.479 169.005 415.614 168.174 416.04 167.484C416.465 166.793 417.146 166.298 417.934 166.108C418.494 165.977 419.078 166.003 419.623 166.185C419.763 166.235 419.912 166.255 420.06 166.243C420.208 166.231 420.351 166.187 420.481 166.114C420.61 166.041 420.722 165.941 420.809 165.821C420.897 165.701 420.957 165.563 420.986 165.417C421.22 164.292 421.794 163.267 422.63 162.479C423.467 161.691 424.525 161.18 425.662 161.014C426.799 160.848 427.96 161.035 428.987 161.551C430.013 162.066 430.857 162.885 431.403 163.896C431.493 164.064 431.628 164.204 431.794 164.299C431.959 164.395 432.147 164.442 432.338 164.437H432.456C433.404 164.433 434.319 164.777 435.029 165.405C435.739 166.032 436.193 166.899 436.306 167.839C436.418 168.78 436.18 169.729 435.638 170.506C435.095 171.283 434.286 171.833 433.365 172.052C433.067 172.122 432.762 172.157 432.456 172.156H431.598C431.325 172.156 431.062 172.265 430.869 172.458C430.676 172.652 430.567 172.914 430.567 173.187C430.567 173.46 430.676 173.723 430.869 173.916C431.062 174.109 431.325 174.218 431.598 174.218H432.456C433.351 174.222 434.236 174.022 435.042 173.633C435.848 173.245 436.556 172.678 437.111 171.976C437.666 171.274 438.054 170.455 438.246 169.58C438.438 168.706 438.429 167.8 438.219 166.93L438.21 166.934Z" fill="white"/>
</g>
<g opacity="0.5">
<path opacity="0.5" d="M362.63 173.155C362.183 173.26 361.726 173.313 361.267 173.314H358.92C358.646 173.314 358.384 173.206 358.191 173.012C357.997 172.819 357.889 172.557 357.889 172.283C357.889 172.01 357.997 171.748 358.191 171.555C358.384 171.361 358.646 171.253 358.92 171.253H361.267C361.573 171.253 361.878 171.218 362.175 171.148C363.097 170.929 363.906 170.379 364.449 169.602C364.991 168.826 365.229 167.876 365.116 166.936C365.004 165.995 364.55 165.128 363.84 164.501C363.13 163.873 362.215 163.529 361.267 163.533H361.149C360.958 163.54 360.769 163.493 360.604 163.397C360.438 163.302 360.303 163.161 360.214 162.993C359.67 161.974 358.826 161.147 357.796 160.626C356.765 160.106 355.599 159.915 354.457 160.082C353.314 160.248 352.251 160.763 351.412 161.556C350.573 162.35 349.999 163.382 349.769 164.514C349.741 164.66 349.681 164.798 349.594 164.919C349.507 165.039 349.395 165.139 349.266 165.212C349.136 165.285 348.992 165.329 348.844 165.341C348.696 165.353 348.547 165.333 348.407 165.281C347.751 165.061 347.039 165.069 346.388 165.304C345.737 165.539 345.184 165.987 344.82 166.575C344.534 167.04 344.378 167.572 344.366 168.117C344.354 168.663 344.488 169.201 344.753 169.677C345.019 170.154 345.406 170.551 345.876 170.827C346.346 171.104 346.881 171.251 347.426 171.253H350.877C351.151 171.253 351.413 171.361 351.606 171.555C351.8 171.748 351.908 172.01 351.908 172.283C351.908 172.557 351.8 172.819 351.606 173.012C351.413 173.206 351.151 173.314 350.877 173.314H347.426C346.514 173.314 345.618 173.07 344.832 172.607C344.045 172.145 343.396 171.481 342.952 170.684C342.507 169.887 342.284 168.986 342.304 168.074C342.324 167.161 342.588 166.271 343.067 165.495C343.58 164.668 344.317 164.004 345.192 163.579C346.068 163.154 347.045 162.985 348.012 163.092C348.483 161.73 349.329 160.528 350.452 159.624C351.576 158.72 352.931 158.152 354.363 157.985C355.795 157.817 357.245 158.058 358.547 158.678C359.849 159.297 360.949 160.272 361.721 161.49C363.148 161.57 364.498 162.165 365.519 163.164C366.541 164.164 367.165 165.5 367.276 166.925C367.387 168.35 366.977 169.767 366.123 170.913C365.268 172.059 364.027 172.855 362.63 173.155V173.155Z" fill="white"/>
<path opacity="0.5" d="M355.2 173.046H356.654L353.543 180.557L354.288 175.144H352.903L353.997 169.146H356.826L355.2 173.046Z" fill="white"/>
</g>
<g opacity="0.5">
<path opacity="0.5" d="M141.356 162.92C141.084 162.919 140.823 162.81 140.63 162.616C140.438 162.423 140.33 162.162 140.33 161.889V158.906C140.321 158.765 140.34 158.624 140.388 158.491C140.435 158.358 140.51 158.236 140.606 158.133C140.702 158.03 140.819 157.948 140.948 157.892C141.078 157.835 141.217 157.806 141.359 157.806C141.5 157.806 141.639 157.835 141.769 157.892C141.898 157.948 142.015 158.03 142.111 158.133C142.208 158.236 142.282 158.358 142.329 158.491C142.377 158.624 142.397 158.765 142.387 158.906V161.889C142.387 162.162 142.279 162.425 142.085 162.618C141.892 162.811 141.63 162.92 141.356 162.92Z" fill="white"/>
<path opacity="0.5" d="M133.973 170.304H130.989C130.716 170.304 130.454 170.195 130.26 170.002C130.067 169.808 129.958 169.546 129.958 169.273C129.958 168.999 130.067 168.737 130.26 168.544C130.454 168.351 130.716 168.242 130.989 168.242H133.973C134.246 168.242 134.508 168.351 134.702 168.544C134.895 168.737 135.004 168.999 135.004 169.273C135.004 169.546 134.895 169.808 134.702 170.002C134.508 170.195 134.246 170.304 133.973 170.304V170.304Z" fill="white"/>
<path opacity="0.5" d="M141.356 180.671C141.084 180.669 140.823 180.56 140.63 180.367C140.438 180.174 140.33 179.912 140.33 179.64V176.656C140.347 176.395 140.463 176.151 140.654 175.972C140.845 175.793 141.097 175.694 141.359 175.694C141.62 175.694 141.872 175.793 142.063 175.972C142.254 176.151 142.37 176.395 142.387 176.656V179.64C142.387 179.913 142.279 180.175 142.085 180.369C141.892 180.562 141.63 180.671 141.356 180.671Z" fill="white"/>
<path opacity="0.5" d="M151.723 170.304H148.749C148.476 170.304 148.213 170.195 148.02 170.002C147.827 169.808 147.718 169.546 147.718 169.273C147.718 168.999 147.827 168.737 148.02 168.544C148.213 168.351 148.476 168.242 148.749 168.242H151.728C152.001 168.242 152.264 168.351 152.457 168.544C152.65 168.737 152.759 168.999 152.759 169.273C152.759 169.546 152.65 169.808 152.457 170.002C152.264 170.195 152.001 170.304 151.728 170.304H151.723Z" fill="white"/>
<path opacity="0.5" d="M141.356 174.726C140.279 174.726 139.225 174.407 138.329 173.808C137.433 173.209 136.734 172.358 136.322 171.363C135.91 170.367 135.802 169.271 136.012 168.214C136.222 167.157 136.741 166.186 137.503 165.424C138.265 164.662 139.236 164.143 140.293 163.933C141.35 163.723 142.446 163.83 143.442 164.243C144.437 164.655 145.288 165.354 145.887 166.25C146.486 167.146 146.806 168.2 146.806 169.277C146.806 170.723 146.231 172.109 145.21 173.13C144.188 174.152 142.802 174.726 141.356 174.726V174.726ZM141.356 165.881C140.686 165.882 140.03 166.081 139.473 166.455C138.916 166.828 138.482 167.358 138.226 167.978C137.97 168.598 137.903 169.28 138.034 169.937C138.166 170.595 138.489 171.199 138.964 171.673C139.438 172.147 140.043 172.47 140.701 172.6C141.359 172.731 142.04 172.663 142.66 172.406C143.28 172.149 143.809 171.715 144.182 171.157C144.554 170.599 144.753 169.943 144.753 169.273C144.752 168.373 144.393 167.51 143.757 166.874C143.12 166.238 142.256 165.881 141.356 165.881Z" fill="white"/>
<path opacity="0.5" d="M136.139 165.081C136.003 165.082 135.869 165.056 135.743 165.005C135.618 164.953 135.504 164.877 135.408 164.782L134.354 163.728C134.165 163.534 134.06 163.273 134.062 163.002C134.063 162.731 134.172 162.472 134.363 162.28C134.555 162.088 134.815 161.98 135.086 161.978C135.357 161.976 135.618 162.081 135.812 162.271L136.865 163.324C137.009 163.468 137.106 163.651 137.145 163.851C137.185 164.05 137.164 164.257 137.087 164.444C137.009 164.632 136.878 164.793 136.709 164.906C136.54 165.02 136.342 165.081 136.139 165.081V165.081Z" fill="white"/>
<path opacity="0.5" d="M135.081 176.579C134.878 176.578 134.679 176.517 134.51 176.404C134.342 176.291 134.21 176.13 134.133 175.942C134.055 175.754 134.035 175.548 134.074 175.349C134.113 175.149 134.211 174.966 134.354 174.822L135.408 173.768C135.503 173.671 135.617 173.593 135.742 173.539C135.868 173.486 136.003 173.458 136.139 173.457C136.276 173.456 136.411 173.482 136.537 173.534C136.664 173.586 136.778 173.662 136.875 173.759C136.971 173.855 137.048 173.97 137.099 174.096C137.151 174.223 137.178 174.358 137.177 174.494C137.176 174.631 137.148 174.766 137.094 174.891C137.041 175.017 136.963 175.131 136.865 175.226L135.812 176.289C135.615 176.477 135.353 176.581 135.081 176.579Z" fill="white"/>
<path opacity="0.5" d="M147.637 176.579C147.363 176.58 147.1 176.472 146.905 176.279L145.852 175.226C145.663 175.032 145.558 174.771 145.559 174.5C145.561 174.229 145.67 173.969 145.861 173.778C146.053 173.586 146.312 173.477 146.583 173.476C146.855 173.474 147.115 173.579 147.31 173.768L148.363 174.822C148.506 174.966 148.604 175.149 148.643 175.349C148.683 175.548 148.662 175.754 148.584 175.942C148.507 176.13 148.375 176.291 148.207 176.404C148.038 176.517 147.84 176.578 147.637 176.579V176.579Z" fill="white"/>
<path opacity="0.5" d="M146.578 165.081C146.375 165.081 146.177 165.02 146.008 164.906C145.84 164.793 145.708 164.632 145.631 164.444C145.553 164.257 145.532 164.05 145.572 163.851C145.611 163.651 145.709 163.468 145.852 163.324L146.905 162.271C147.1 162.081 147.36 161.976 147.632 161.978C147.903 161.98 148.162 162.088 148.354 162.28C148.545 162.472 148.654 162.731 148.656 163.002C148.657 163.273 148.552 163.534 148.363 163.728L147.31 164.782C147.115 164.974 146.852 165.082 146.578 165.081V165.081Z" fill="white"/>
</g>
<path d="M155.788 119.467H126.934C123.423 119.467 120.577 122.314 120.577 125.825C120.577 129.336 123.423 132.182 126.934 132.182H155.788C159.299 132.182 162.145 129.336 162.145 125.825C162.145 122.314 159.299 119.467 155.788 119.467Z" fill="#F6F7F9"/>
<path d="M226.904 119.467H198.051C194.54 119.467 191.693 122.314 191.693 125.825C191.693 129.336 194.54 132.182 198.051 132.182H226.904C230.415 132.182 233.261 129.336 233.261 125.825C233.261 122.314 230.415 119.467 226.904 119.467Z" fill="#F6F7F9"/>
<path d="M298.025 119.467H269.171C265.66 119.467 262.814 122.314 262.814 125.825C262.814 129.336 265.66 132.182 269.171 132.182H298.025C301.536 132.182 304.382 129.336 304.382 125.825C304.382 122.314 301.536 119.467 298.025 119.467Z" fill="#F6F7F9"/>
<path d="M369.146 119.467H340.292C336.781 119.467 333.935 122.314 333.935 125.825C333.935 129.336 336.781 132.182 340.292 132.182H369.146C372.657 132.182 375.503 129.336 375.503 125.825C375.503 122.314 372.657 119.467 369.146 119.467Z" fill="#F6F7F9"/>
<path d="M440.267 119.467H411.413C407.902 119.467 405.056 122.314 405.056 125.825C405.056 129.336 407.902 132.182 411.413 132.182H440.267C443.778 132.182 446.624 129.336 446.624 125.825C446.624 122.314 443.778 119.467 440.267 119.467Z" fill="#F6F7F9"/>
<path d="M191.693 167.475C191.693 167.475 178.143 153.874 173.902 153.679C171.463 153.57 168.648 152.348 166.695 151.336L166.196 151.072C166.65 150.478 166.409 150.164 166.173 149.996C166.095 149.946 166.011 149.907 165.923 149.878L133.619 124.358C133.923 123.872 132.206 118.455 132.206 118.455L130.49 112.81L126.857 108.11C126.857 108.11 127.87 104.823 126.857 103.179C125.844 101.535 126.053 97.6659 125.345 88.2888C124.636 78.9117 120.804 78.3304 120.804 78.3304C120.804 78.3304 105.955 68.4765 104.247 68.7671C102.649 69.035 100.515 65.9426 100.233 65.5248L100.201 65.4794C100.201 65.4794 100.201 65.5203 100.174 65.5884C100.198 65.2342 100.207 64.8755 100.201 64.5122C100.201 64.3805 100.201 64.2534 100.201 64.1217C100.481 62.5673 100.924 61.0467 101.523 59.5852C101.65 59.2719 101.777 58.9767 101.904 58.7043C104.848 57.8883 107.532 56.3297 109.699 54.178C111.867 52.0262 113.445 49.3536 114.283 46.4164C114.31 46.3119 114.333 46.2075 114.36 46.103C115.091 46.1939 115.831 46.2347 116.549 46.262H116.685C116.455 45.7699 116.291 45.2491 116.199 44.7135H116.054C116.01 44.4475 115.981 44.1791 115.968 43.9097C116.022 44.0868 116.081 44.2639 116.149 44.441C115.995 42.8108 116.247 41.1677 116.885 39.6594C117.716 37.5478 118.992 35.627 119.905 33.5472C120.589 32.1558 120.912 30.6144 120.845 29.0653C120.793 28.5079 120.654 27.9623 120.431 27.4487C120.43 27.4728 120.43 27.4971 120.431 27.5213C120.431 27.6348 120.431 27.7484 120.431 27.8664C120.267 27.3209 119.996 26.8134 119.634 26.373C119.273 25.9327 118.828 25.5683 118.324 25.3008C117.507 24.9012 116.549 24.8013 115.791 24.2972C113.552 22.8169 113.679 20.4192 110.696 19.6472C108.298 19.0251 105.76 19.0342 103.339 18.3849C98.1171 16.9953 93.7032 17.8626 88.6537 19.6518C84.8756 21.1639 81.1883 23.1029 78.3365 25.9774C75.4848 28.8518 73.5413 32.7889 73.7956 36.794C73.8312 38.0629 74.1924 39.3014 74.8445 40.3905C75.4485 41.335 76.3567 42.1206 76.6609 43.1923C77.0242 44.4274 76.5201 45.7352 76.5156 47.0249C76.5156 48.1964 77.3375 49.5678 78.441 49.5496C78.5936 49.5624 78.7472 49.5486 78.8951 49.5088C79.2838 49.3795 79.6274 49.1416 79.885 48.8231C79.9531 48.9775 80.0212 49.1319 80.0939 49.2772C80.2665 49.645 80.4572 50.0083 80.6615 50.3579C80.6297 50.5532 80.5934 50.7485 80.548 50.9346C80.1262 52.3843 79.3362 53.7 78.2548 54.7536C77.9816 54.7728 77.717 54.8568 77.4828 54.9988V54.9988L77.2603 55.1078L69.8949 58.8223H69.0866C66.7071 58.7906 59.8456 58.7361 58.7921 59.1584C57.5116 59.6806 45.1283 60.6751 45.1283 60.6751C45.1283 60.6751 38.5303 61.061 38.8708 70.6652C38.8708 70.6652 36.3778 78.8072 35.6377 80.1604C34.8975 81.5136 30.5245 94.7234 30.5245 94.7234L25.425 119.98L24.8165 147.948C24.8165 147.948 24.8165 151.127 24.7166 154.901C24.4941 161.176 24.1807 166.38 23.7448 167.284L24.1989 167.465C24.179 167.536 24.1547 167.606 24.1263 167.674L24.5259 167.583L27.3549 168.637C27.3549 168.637 20.3754 176.561 25.425 178.559C27.918 179.544 33.8258 182.401 39.1705 185.039C38.1175 190.892 38.5978 196.918 40.5646 202.531C41.2478 205.796 41.363 209.154 40.9052 212.458C40.1014 217.484 40.9733 234.114 40.9733 234.114L40.9052 263.248C40.9052 263.248 41.9814 281.939 42.9259 285.953C43.8705 289.968 40.9052 291.63 40.9052 291.63C40.9052 291.63 42.8442 302.614 45.1964 304.072C45.151 304.285 45.0965 304.526 45.0375 304.739C44.581 306.535 43.9874 308.293 43.262 309.998C41.6454 313.799 42.658 316.505 42.658 316.505C42.658 316.505 42.7897 321.859 52.4802 322.953C62.1706 324.048 61.771 317.277 60.9627 314.702C60.4678 313.127 60.8265 308.231 61.1852 304.662C61.2125 304.376 61.2397 304.099 61.267 303.836C61.8618 303.454 62.6293 302.642 63.5375 300.907C65.4174 297.17 63.5375 288.147 62.1752 285.181C60.8129 282.216 62.0389 278.992 62.0389 278.992C62.0389 278.992 60.5586 262.363 62.0389 260.951C63.5193 259.538 63.2514 253.231 63.2514 253.231L65.6763 240.207L68.5008 234.667L69.3091 222.548L71.5796 211.849C71.5796 211.849 72.5195 210.941 73.3278 202.44C74.1361 193.939 75.2123 196.637 75.2123 196.637C74.8127 202.308 77.9052 205.147 77.9052 205.147L78.7498 219.973C78.7498 219.973 79.7897 231.053 81.5107 233.764C83.2317 236.475 81.5107 239.821 81.5107 239.821C81.5107 239.821 82.0783 250.388 81.5788 253.485C81.0793 256.582 83.5587 263.671 83.5587 263.671L84.2307 276.431C84.2307 276.431 80.1938 287.901 82.0783 291.643C83.9628 295.385 83.0228 299.763 83.0228 299.763C83.1073 300.014 83.2434 300.244 83.4224 300.439C83.3725 300.634 83.3225 300.834 83.2771 301.043C83.0003 302.408 82.8032 303.788 82.6868 305.175C82.6868 305.175 83.6949 306.538 88.2041 308.204C92.7133 309.871 91.7052 312.718 92.3773 314.525C93.0493 316.333 97.6267 317.936 106.645 317.55C115.663 317.164 109.942 310.656 109.942 310.656C109.942 310.656 105.233 304.017 103.616 303.114C103.058 302.8 102.472 301.779 101.936 300.557C101.836 300.33 101.741 300.103 101.645 299.858L102.022 299.763C102.022 299.763 104.425 280.69 102.676 278.874C100.928 277.058 103.253 264.692 103.253 264.692C103.253 264.692 104.425 260.574 103.889 259.411C103.353 258.249 104.425 253.74 104.425 253.74C104.425 253.74 105.233 241.479 103.748 238.659C102.263 235.839 104.556 219.319 104.556 219.319C104.556 219.319 105.501 203.852 107.88 198.312C108.334 197.295 108.589 195.134 108.752 192.318C110.069 191.678 110.886 191.188 110.886 191.188C110.886 191.188 113.611 154.451 111.994 149.905C111.013 146.996 110.543 143.939 110.605 140.869L113.734 129.753C113.734 129.753 115.754 135.261 117.067 135.937C118.379 136.614 119.996 139.325 119.996 139.325L133.823 150.346L144.526 158.175L154.017 166.008C154.226 164.189 154.809 162.433 155.729 160.849L156.065 160.972C157.817 161.603 160.043 162.384 159.498 162.066C159.198 161.889 159.357 160.895 159.825 159.591L160.229 159.982C162.214 161.813 164.294 163.539 166.459 165.154C176.499 172.819 181.771 164.246 181.771 164.246C181.771 164.246 186.821 168.623 189.309 169.591C191.798 170.558 191.693 167.475 191.693 167.475Z" fill="url(#paint0_linear)"/>
<path d="M83.9447 304.344C83.9447 304.344 84.9074 305.707 89.1895 307.351C93.4717 308.994 92.5135 311.828 93.1538 313.622C93.7941 315.415 98.1489 317.009 106.713 316.623C115.277 316.237 109.846 309.784 109.846 309.784C109.846 309.784 105.369 303.196 103.834 302.301C103.303 301.992 102.749 300.975 102.236 299.767C101.556 298.045 100.979 296.285 100.506 294.495C100.506 294.495 86.3741 296.416 85.3524 297.824C84.9264 298.572 84.6417 299.392 84.5123 300.244C84.2473 301.599 84.0578 302.968 83.9447 304.344V304.344Z" fill="#B07473"/>
<path d="M45.8958 315.615C45.8958 315.615 46.0229 320.924 55.232 322.009C64.4411 323.094 64.0552 316.383 63.2877 313.835C62.8336 312.273 63.1606 307.414 63.5012 303.872C63.7146 301.602 63.928 299.89 63.928 299.89C63.928 299.89 48.4523 300.212 48.5795 301.043C48.5771 302.027 48.4349 303.005 48.1572 303.949C47.7253 305.728 47.1622 307.472 46.4725 309.167C44.9376 312.927 45.8958 315.615 45.8958 315.615Z" fill="#B07473"/>
<path d="M155.106 157.307C155.37 157.852 156.015 158.779 157.59 160.322C159.475 162.136 161.453 163.851 163.516 165.458C173.052 173.064 178.048 164.55 178.048 164.55C178.048 164.55 182.843 168.9 185.213 169.859C187.584 170.817 187.484 167.747 187.484 167.747C187.484 167.747 174.633 154.269 170.6 154.074C168.28 153.965 165.605 152.757 163.753 151.749C162.39 151.004 161.455 150.387 161.455 150.387L157.995 153.724L154.979 156.631C154.979 156.631 154.857 156.762 155.106 157.307Z" fill="#EFB7B9"/>
<path opacity="0.1" d="M85.3524 297.837C84.9265 298.586 84.6417 299.406 84.5123 300.257C86.8918 303.722 101.046 300.089 102.222 299.803C101.543 298.081 100.965 296.321 100.492 294.531C100.492 294.531 86.3741 296.429 85.3524 297.837Z" fill="black"/>
<path opacity="0.1" d="M48.1572 303.94C48.2469 304.016 48.3461 304.08 48.4523 304.131C50.7546 305.175 62.5294 304.104 62.5294 304.104C62.7006 304.136 62.8768 304.132 63.046 304.09C63.2153 304.049 63.3736 303.971 63.5102 303.863C63.7236 301.593 63.9371 299.881 63.9371 299.881C63.9371 299.881 48.4614 300.203 48.5885 301.034C48.5832 302.018 48.4379 302.997 48.1572 303.94Z" fill="black"/>
<path d="M43.9068 202.554C44.558 205.795 44.6685 209.121 44.2337 212.399C43.4663 217.394 44.2973 233.886 44.2973 233.886L44.2337 262.794C44.2337 262.794 45.2555 281.34 46.15 285.299C47.0446 289.259 44.2337 290.93 44.2337 290.93C44.2337 290.93 46.15 302.315 48.4523 303.364C50.7546 304.413 62.5294 303.336 62.5294 303.336C62.5294 303.336 63.9371 303.849 65.7081 300.158C67.4791 296.466 65.7081 287.497 64.4275 284.55C63.147 281.603 64.3004 278.411 64.3004 278.411C64.3004 278.411 62.8927 261.913 64.3004 260.51C65.7081 259.107 65.4492 252.836 65.4492 252.836L67.7515 239.917L70.4534 234.413L71.2208 222.389L73.396 211.776C73.396 211.776 74.3042 210.868 75.058 202.436C75.8118 194.003 76.8471 196.682 76.8471 196.682C76.4657 202.308 79.4037 205.119 79.4037 205.119L80.2074 219.832C80.2074 219.832 81.1974 230.83 82.8321 233.514C84.4669 236.198 82.8321 239.526 82.8321 239.526C82.8321 239.526 83.3725 250.016 82.8957 253.086C82.4189 256.155 84.7757 263.189 84.7757 263.189L85.416 275.854C85.416 275.854 81.5788 287.234 83.3725 290.944C85.1662 294.654 84.2807 299 84.2807 299C85.6884 303.482 102.331 299 102.331 299C102.331 299 104.602 280.073 102.953 278.284C101.305 276.495 103.503 264.207 103.503 264.207C103.503 264.207 104.615 260.12 104.107 258.966C103.598 257.813 104.615 253.335 104.615 253.335C104.615 253.335 105.383 241.184 103.975 238.373C102.567 235.562 104.742 219.187 104.742 219.187C104.742 219.187 105.651 203.839 107.898 198.34C108.316 197.331 108.575 195.193 108.729 192.373C109.406 179.835 107.898 153.833 107.898 153.833L101.641 145.26L95.111 144.915L88.8081 144.57L76.9743 143.943L65.2858 143.321L51.0089 142.563C51.0089 142.563 48.0709 168.9 43.9068 180.298C43.3295 181.887 42.8874 183.521 42.5854 185.184C41.5817 190.994 42.0358 196.962 43.9068 202.554V202.554Z" fill="#444053"/>
<path d="M78.6998 56.8606L83.7857 69.3302L94.8158 71.1466C94.8158 71.1466 100.669 73.1628 100.378 68.1722C100.229 65.5294 101.046 62.723 101.845 60.6705C102.249 59.6251 102.721 58.6072 103.257 57.6235C103.257 57.6235 80.6207 44.8633 81.8694 49.1818C82.1406 50.1293 82.1594 51.1311 81.9239 52.0881C81.2473 54.9307 78.6998 56.8606 78.6998 56.8606Z" fill="#EFB7B9"/>
<path d="M91.9414 147.68H67.1294L68.4054 156.376H92.4499L91.9414 147.68Z" fill="#B07473"/>
<path opacity="0.1" d="M91.9414 147.68H67.1294L68.4054 156.376H92.4499L91.9414 147.68Z" fill="black"/>
<path opacity="0.1" d="M155.106 157.307C155.37 157.852 156.015 158.779 157.59 160.322C158.43 157.857 160.315 154.269 162.222 153.057C162.808 152.733 163.322 152.294 163.734 151.767C162.372 151.023 161.437 150.405 161.437 150.405L157.976 153.743L155.106 157.307Z" fill="black"/>
<path d="M151.796 160.599C151.796 160.599 152.641 160.926 153.649 161.303C155.315 161.935 157.431 162.711 156.909 162.389C156.083 161.88 158.962 154.524 161.854 152.671C164.007 151.309 163.603 150.655 163.253 150.4C163.182 150.351 163.104 150.313 163.021 150.287L160.687 149.451L151.796 160.599Z" fill="#E1E7EF"/>
<path opacity="0.1" d="M81.8694 49.2C82.1406 50.1474 82.1594 51.1493 81.9239 52.1062C83.7709 55.5914 86.7521 58.3418 90.3746 59.9024C93.9971 61.463 98.0437 61.7404 101.845 60.6887C102.249 59.6433 102.721 58.6254 103.257 57.6417C103.257 57.6417 80.6343 44.8815 81.8694 49.2Z" fill="black"/>
<path d="M79.9168 43.2377C79.9159 46.6599 80.93 50.0055 82.8307 52.8514C84.7314 55.6973 87.4335 57.9155 90.595 59.2255C93.7566 60.5356 97.2356 60.8786 100.592 60.2112C103.949 59.5437 107.032 57.8959 109.452 55.476C111.872 53.0561 113.519 49.9729 114.187 46.6164C114.854 43.2599 114.511 39.7808 113.201 36.6193C111.891 33.4577 109.673 30.7557 106.827 28.8549C103.981 26.9542 100.636 25.9402 97.2134 25.9411C94.9381 25.9272 92.6827 26.3651 90.5779 27.2295C88.4732 28.0938 86.5609 29.3673 84.952 30.9762C83.3431 32.5851 82.0695 34.4974 81.2052 36.6022C80.3409 38.707 79.903 40.9624 79.9168 43.2377V43.2377Z" fill="#EFB7B9"/>
<path d="M64.6954 147.712L75.7255 148.207L88.4403 148.775L94.6432 149.056L95.0973 144.906L99.9971 101.957L101.627 69.4392H97.2134L85.0345 67.423L80.707 65.8064L75.058 63.6721L70.4534 73.0765L68.9186 116.143L65.2858 143.312L64.6954 147.712Z" fill="#E1E7EF"/>
<path opacity="0.1" d="M79.7579 100.041C79.7579 100.041 84.1672 80.7598 87.2369 77.0181C87.2369 77.0181 86.088 70.3973 83.5451 69.5345C81.0021 68.6717 87.4322 67.423 87.4322 67.423L91.3646 68.7853L95.2971 70.3928C95.2971 70.3928 91.8414 73.4625 92.4182 77.4903C92.0987 79.2931 92.2632 81.1484 92.895 82.8669C93.9485 85.5551 94.1392 107.329 92.895 110.208C91.6507 113.087 91.8414 119.417 91.8414 119.417L89.2622 131.787L88.3994 146.654L79.0858 153.584L72.5604 145.41L79.7579 100.041Z" fill="black"/>
<path d="M79.3719 99.6549C79.3719 99.6549 83.7857 80.3739 86.8555 76.6321C86.8555 76.6321 85.702 70.0159 83.1636 69.1531C80.6252 68.2903 87.0462 67.0415 87.0462 67.0415L90.9787 68.4038L94.9112 70.0113C94.9112 70.0113 91.46 73.081 92.0367 77.1089C91.7121 78.9083 91.8688 80.7615 92.4908 82.4809C93.5489 85.1646 93.7396 106.943 92.4908 109.818C91.242 112.692 91.4373 119.027 91.4373 119.027L88.8489 131.401L87.9816 146.268L78.6771 153.175L72.1563 145.024L79.3719 99.6549Z" fill="#B07473"/>
<path opacity="0.1" d="M100.565 65.602L90.9787 68.7807C90.9787 68.7807 95.7694 71.251 95.7739 78.5438C95.7739 78.5529 100.651 72.5997 100.565 65.602Z" fill="black"/>
<path d="M100.565 65.216L90.9787 68.3947C90.9787 68.3947 95.7694 70.865 95.7739 78.1533C95.7739 78.1669 100.651 72.2183 100.565 65.216Z" fill="#E1E7EF"/>
<path opacity="0.1" d="M79.7488 56.2794C79.7488 56.2794 84.4578 64.4032 90.9787 68.7898C90.9787 68.7898 87.028 67.3276 79.7488 72.8767C79.7488 72.8903 75.2305 56.6472 79.7488 56.2794Z" fill="black"/>
<path d="M79.7488 55.8979C79.7488 55.8979 84.4578 64.0172 90.9787 68.4084C90.9787 68.4084 87.028 66.9462 79.7488 72.4952C79.7488 72.5089 75.2305 56.2658 79.7488 55.8979Z" fill="#E1E7EF"/>
<path opacity="0.1" d="M151.796 160.599C151.796 160.599 152.641 160.926 153.649 161.303C156.501 155.791 162.277 151.191 163.253 150.405C163.182 150.356 163.104 150.317 163.021 150.291L160.687 149.456L151.796 160.599Z" fill="black"/>
<path opacity="0.1" d="M87.0462 174.286C87.3368 180.711 90.8833 192.609 90.8833 192.609C95.3426 198.785 105.215 194.253 108.716 192.364C109.392 179.826 107.885 153.824 107.885 153.824L101.627 145.251L95.0973 144.906L99.9971 101.957L101.627 69.4392H99.1888C98.3986 72.745 97.1544 78.3304 97.3724 79.7018C97.6902 81.6862 94.3617 101.449 94.3617 101.449L90.2476 126.624L89.1214 133.485C89.4938 134.634 89.2168 139.516 88.7944 144.57C88.6718 145.982 88.5447 147.412 88.4175 148.775C87.9634 153.438 87.5093 157.339 87.5093 157.339C86.9508 161.757 87.0462 174.286 87.0462 174.286Z" fill="black"/>
<path d="M87.8136 173.9C88.1042 180.33 91.6507 192.223 91.6507 192.223C97.0999 199.802 110.723 191.265 110.723 191.265C110.723 191.265 113.311 154.814 111.776 150.305C110.839 147.425 110.386 144.41 110.437 141.382L113.407 130.352C113.407 130.352 115.327 135.801 116.585 136.491C117.843 137.182 119.364 139.847 119.364 139.847L132.506 150.782L142.673 158.551L151.692 166.321C152.364 158.265 163.012 150.305 163.012 150.305L132.324 124.975C132.61 124.494 130.962 119.122 130.962 119.122L129.332 113.523L125.881 108.859C125.881 108.859 126.839 105.599 125.881 103.969C124.923 102.339 125.113 98.5196 124.441 89.197C123.769 79.8744 120.141 79.3204 120.141 79.3204C120.141 79.3204 106.064 69.5345 104.411 69.8206C102.89 70.0931 100.86 67.0234 100.592 66.6056L100.565 66.5602C100.565 66.5602 97.8401 77.3359 98.1443 79.3204C98.4486 81.3048 95.1337 101.063 95.1337 101.063L91.0195 126.238L89.8934 133.104C90.7289 135.674 88.2949 156.953 88.2949 156.953C87.7182 161.367 87.8136 173.9 87.8136 173.9Z" fill="#67647E"/>
<path opacity="0.1" d="M42.5854 185.184C48.0845 188.018 53.184 190.72 53.184 190.72C53.184 190.72 61.6938 193.535 65.145 177.551L75.058 150.373C75.058 150.373 75.3168 149.565 75.7255 148.212C76.0615 147.108 76.4975 145.637 76.9652 143.948C78.9133 137.023 81.5062 126.447 80.5571 122.296V121.974L80.3618 84.824C80.3618 84.824 81.4108 67.3594 80.7569 65.9199C80.7432 65.8823 80.7265 65.8459 80.707 65.8109V65.8109L75.058 63.6721L70.4534 73.0765L68.9185 116.143L65.2858 143.312L51.0089 142.554C51.0089 142.554 48.0709 168.891 43.9068 180.289C43.329 181.881 42.8869 183.518 42.5854 185.184V185.184Z" fill="black"/>
<path d="M29.5209 178.763C34.3208 180.743 52.4166 190.334 52.4166 190.334C52.4166 190.334 60.9264 193.154 64.3776 177.165L74.2769 149.987C74.2769 149.987 81.2473 128.304 79.776 121.91V121.588L79.5808 84.4335C79.5808 84.4335 80.6298 66.9734 79.9758 65.5339C79.3628 64.1716 78.6135 60.1256 78.936 56.6835C78.9587 56.5019 78.9768 56.3203 78.9995 56.1386L78.7816 56.2567L71.7794 59.9394H71.0119C68.7414 59.9076 62.2297 59.8532 61.2307 60.2755C60.0137 60.7886 48.248 61.7785 48.248 61.7785C48.248 61.7785 41.9814 62.16 42.3038 71.7051C42.3038 71.7051 39.9334 79.7835 39.2341 81.1231C38.5348 82.4627 34.3707 95.5726 34.3707 95.5726L29.5073 120.648L28.9352 148.398C28.9352 148.398 28.8716 166.108 27.9134 167.584L31.3646 168.946C31.3646 168.946 24.7257 176.779 29.5209 178.763Z" fill="#67647E"/>
<path d="M46.536 163.029L48.7112 165.908C48.7112 165.908 62.0117 190.016 47.1763 186.501C32.3409 182.987 34.5115 170.839 34.5115 170.839L35.4197 162.398L46.536 163.029Z" fill="#EFB7B9"/>
<path opacity="0.1" d="M65.2721 293.169C64.9543 293.105 59.773 290.93 56.1902 290.93C52.6073 290.93 47.812 290.544 48.3888 291.507C48.9655 292.47 55.8723 292.592 57.8522 293.55C59.832 294.509 64.0552 297.133 64.4411 297.26C64.8271 297.388 65.2721 293.169 65.2721 293.169Z" fill="black"/>
<path opacity="0.1" d="M100.955 282.298C100.892 282.679 93.2809 291.225 89.0624 290.853C84.8438 290.481 100.955 282.298 100.955 282.298Z" fill="black"/>
<path opacity="0.1" d="M98.7165 261.895C98.7165 261.895 90.5427 282.679 87.909 283.769C85.2752 284.859 84.9028 281.208 86.3105 280.186C87.7182 279.165 92.0685 272.448 98.7165 261.895Z" fill="black"/>
<path opacity="0.1" d="M56.6397 255.052C56.6397 255.052 55.2774 262.726 58.6832 267.717C62.0889 272.707 56.6397 255.052 56.6397 255.052Z" fill="black"/>
<path opacity="0.1" d="M78.1277 185.475C78.273 185.357 65.9124 184.835 65.9124 184.835C65.9124 184.835 71.4751 190.911 78.1277 185.475Z" fill="black"/>
<path opacity="0.1" d="M76.5928 190.783L69.1093 191.487C69.1093 191.487 71.7294 194.684 76.5928 190.783Z" fill="black"/>
<path opacity="0.1" d="M120.845 111.039C120.845 111.039 127.561 111.947 128.201 113.918C128.841 115.889 120.845 111.039 120.845 111.039Z" fill="black"/>
<path opacity="0.1" d="M132.738 127.473C132.229 127.282 128.069 126.065 125.131 126.833C122.193 127.6 118.029 125.425 118.029 125.425C118.029 125.425 113.811 125.298 114.642 125.879C115.473 126.46 117.966 126.197 119.373 127.032C120.781 127.868 124.482 128.567 125.413 128.181C126.344 127.795 132.738 127.473 132.738 127.473Z" fill="black"/>
<path d="M91.0195 126.238L91.1739 129.712C91.1739 129.712 102.94 100.808 105.878 94.6008C108.816 88.3932 107.163 74.9065 107.163 74.9065L105.496 74.5205L100.615 66.6056L100.587 66.5602C100.587 66.5602 97.8628 77.3359 98.167 79.3204C98.4713 81.3048 95.1564 101.063 95.1564 101.063L91.0195 126.238Z" fill="#67647E"/>
<path d="M67.4654 65.6974C67.4654 65.6974 72.3016 115.439 79.7897 121.588L79.5944 84.4335C79.5944 84.4335 80.6434 66.9734 79.9895 65.5339C79.3764 64.1716 78.6272 60.1256 78.9496 56.6835L78.7952 56.2567L71.793 59.9394H71.0256L70.5715 66.5738L67.4654 65.6974Z" fill="#67647E"/>
<path opacity="0.1" d="M91.0195 126.238L91.1739 129.712C91.1739 129.712 102.94 100.808 105.878 94.6008C108.816 88.3932 107.163 74.9065 107.163 74.9065L105.496 74.5205L100.615 66.6056L100.587 66.5602C100.587 66.5602 97.8628 77.3359 98.167 79.3204C98.4713 81.3048 95.1564 101.063 95.1564 101.063L91.0195 126.238Z" fill="black"/>
<path opacity="0.1" d="M67.4654 65.6974C67.4654 65.6974 72.3016 115.439 79.7897 121.588L79.5944 84.4335C79.5944 84.4335 80.6434 66.9734 79.9895 65.5339C79.3764 64.1716 78.6272 60.1256 78.9496 56.6835L78.7952 56.2567L71.793 59.9394H71.0256L70.5715 66.5738L67.4654 65.6974Z" fill="black"/>
<path d="M92.4545 135.874C93.2445 135.874 93.8849 135.233 93.8849 134.443C93.8849 133.653 93.2445 133.013 92.4545 133.013C91.6645 133.013 91.0241 133.653 91.0241 134.443C91.0241 135.233 91.6645 135.874 92.4545 135.874Z" fill="#444053"/>
<path d="M91.0195 157.039C91.8095 157.039 92.4499 156.399 92.4499 155.609C92.4499 154.819 91.8095 154.179 91.0195 154.179C90.2295 154.179 89.5891 154.819 89.5891 155.609C89.5891 156.399 90.2295 157.039 91.0195 157.039Z" fill="#444053"/>
<path opacity="0.1" d="M79.9168 43.2377C79.9131 45.7286 80.4508 48.1907 81.4925 50.4533L81.7196 50.1808C84.5123 46.6934 85.1072 41.8391 87.6229 38.1245C88.5311 36.7986 89.6981 35.5997 91.1966 35.1093C92.6951 34.6189 94.5206 34.9958 95.4424 36.2991C96.0237 37.1255 96.1962 38.2063 96.8047 39.0236C97.9763 40.563 100.224 40.5222 102.109 40.2361C103.993 39.95 106.136 39.6276 107.59 40.8855C109.043 42.1433 109.147 44.3048 110.314 45.7625C111.222 46.875 112.548 47.3836 113.97 47.6243C114.574 45.2513 114.668 42.777 114.245 40.365C113.822 37.953 112.891 35.6584 111.515 33.6328C110.139 31.6073 108.348 29.8972 106.262 28.6154C104.175 27.3337 101.84 26.5096 99.4114 26.1978C96.9825 25.8859 94.5151 26.0933 92.1724 26.8063C89.8297 27.5194 87.6651 28.7217 85.8218 30.3338C83.9785 31.9459 82.4985 33.9311 81.4798 36.1579C80.461 38.3848 79.9268 40.8025 79.9123 43.2513L79.9168 43.2377Z" fill="black"/>
<path d="M89.63 21.064C86.0426 22.5671 82.537 24.4879 79.826 27.3442C77.115 30.2005 75.285 34.0921 75.4894 38.0746C75.5252 39.3282 75.8682 40.5538 76.4884 41.6438C77.0605 42.5792 77.9233 43.3603 78.2276 44.4229C78.5727 45.6489 78.0913 46.9477 78.0913 48.2237C78.0913 49.4997 79.0313 51.0209 80.2302 50.6849C80.6817 50.5153 81.0691 50.2089 81.3382 49.8085C84.1263 46.3256 84.7212 41.4667 87.2142 37.7567C88.1224 36.4307 89.2894 35.2319 90.7879 34.7415C92.2865 34.2511 94.1165 34.6234 95.0383 35.9312C95.6196 36.7577 95.7876 37.8384 96.4006 38.6558C97.5676 40.1952 99.82 40.1544 101.7 39.8683C103.58 39.5822 105.728 39.2598 107.185 40.5131C108.643 41.7664 108.743 43.9325 109.91 45.3901C111.34 47.1656 113.865 47.3972 116.104 47.488C115.196 45.4491 115.514 43.0243 116.304 40.9309C117.094 38.8375 118.306 36.9303 119.174 34.8686C119.83 33.4801 120.142 31.9534 120.082 30.4185C119.95 28.8972 119.174 27.3669 117.839 26.6858C117.062 26.2862 116.149 26.1863 115.427 25.6868C113.298 24.22 113.42 21.836 110.587 21.0731C108.316 20.4556 105.896 20.4646 103.598 19.8244C98.6211 18.4257 94.4298 19.2885 89.63 21.064Z" fill="#585268"/>
<path opacity="0.1" d="M39.1796 165.077C39.1796 165.077 35.2789 168.914 34.7658 168.85C34.2527 168.787 33.4898 165.395 33.4898 165.395L39.1796 165.077Z" fill="black"/>
<path d="M38.7982 164.691C38.7982 164.691 34.8975 168.528 34.3843 168.464C33.8712 168.401 33.1038 165.013 33.1038 165.013L38.7982 164.691Z" fill="#E1E7EF"/>
<path opacity="0.1" d="M28.3085 167.956C28.3085 167.956 44.9376 164.119 49.0926 165.908C49.0926 165.908 47.5577 156.508 47.812 154.782C48.0663 153.057 47.7485 147.04 47.7485 147.04C47.7485 147.04 46.7903 135.851 48.0709 132.718C49.3514 129.585 48.643 121.27 48.643 121.27L29.7162 130.284C29.7162 130.284 29.4619 165.458 28.3085 167.956Z" fill="black"/>
<path d="M27.9271 167.57C27.9271 167.57 44.5516 163.733 48.7112 165.522C48.7112 165.522 47.1763 156.122 47.4306 154.396C47.6849 152.671 47.367 146.677 47.367 146.677C47.367 146.677 46.4089 135.483 47.6849 132.35C48.9609 129.217 48.2616 120.907 48.2616 120.907L29.3211 129.902C29.3211 129.902 29.0759 165.077 27.9271 167.57Z" fill="#67647E"/>
<g opacity="0.1">
<path opacity="0.1" d="M115.736 45.658C114.96 43.6827 115.282 41.3804 116.049 39.3824C116.84 37.2844 118.052 35.3818 118.919 33.3202C119.576 31.9316 119.888 30.4049 119.828 28.87C119.829 28.8458 119.829 28.8215 119.828 28.7973C120.04 29.3101 120.173 29.8521 120.223 30.4048C120.283 31.9397 119.971 33.4664 119.314 34.855C118.447 36.9166 117.239 38.8193 116.449 40.9172C115.836 42.4177 115.591 44.0435 115.736 45.658V45.658Z" fill="black"/>
<path opacity="0.1" d="M79.9713 49.141C80.4235 48.9703 80.8121 48.6642 81.0838 48.2645C83.872 44.7816 84.4669 39.9228 86.9599 36.2128C87.8681 34.8868 89.0351 33.688 90.5291 33.1976C92.0231 32.7071 93.8576 33.0795 94.7795 34.3873C95.3652 35.2137 95.5287 36.2945 96.1417 37.1119C97.3133 38.6513 99.5611 38.6104 101.446 38.3243C103.33 38.0382 105.473 37.7158 106.931 38.9691C108.389 40.2225 108.489 42.3885 109.656 43.8462C111.068 45.6035 113.552 45.8442 115.772 45.9396C115.856 46.4702 116.009 46.9877 116.227 47.479C113.983 47.3881 111.459 47.1565 110.028 45.381C108.857 43.9234 108.707 41.721 107.303 40.504C105.9 39.287 103.698 39.5686 101.818 39.8592C99.938 40.1498 97.6857 40.1861 96.5187 38.6467C95.9102 37.843 95.7421 36.7622 95.1564 35.9221C94.2482 34.6143 92.4 34.242 90.906 34.7324C89.412 35.2228 88.2268 36.4217 87.3322 37.7476C84.8392 41.4576 84.2444 46.3165 81.4562 49.7994C81.1872 50.1998 80.7998 50.5062 80.3482 50.6758C79.1494 51.0118 78.2049 49.4906 78.2094 48.2146V48.1556C78.6045 48.864 79.2402 49.3544 79.9713 49.141Z" fill="black"/>
<path opacity="0.1" d="M76.2295 40.1089C76.8062 41.0444 77.669 41.8254 77.9687 42.888C78.0509 43.1837 78.0922 43.4893 78.0913 43.7962C77.7008 43.0333 77.0696 42.3885 76.6155 41.6529C76.1404 40.8458 75.8316 39.9519 75.7073 39.0237C75.8466 39.4011 76.0215 39.7645 76.2295 40.1089V40.1089Z" fill="black"/>
</g>
<path opacity="0.1" d="M367.193 305.625C387.201 305.625 403.421 303.136 403.421 300.067C403.421 296.997 387.201 294.509 367.193 294.509C347.185 294.509 330.965 296.997 330.965 300.067C330.965 303.136 347.185 305.625 367.193 305.625Z" fill="#04C2C9"/>
<path opacity="0.1" d="M176.835 358.941C186.731 358.941 194.754 357.709 194.754 356.189C194.754 354.669 186.731 353.437 176.835 353.437C166.939 353.437 158.916 354.669 158.916 356.189C158.916 357.709 166.939 358.941 176.835 358.941Z" fill="#04C2C9"/>
<path opacity="0.1" d="M291.123 344.741C301.019 344.741 309.041 343.509 309.041 341.989C309.041 340.469 301.019 339.237 291.123 339.237C281.226 339.237 273.204 340.469 273.204 341.989C273.204 343.509 281.226 344.741 291.123 344.741Z" fill="#04C2C9"/>
<path opacity="0.1" d="M208.572 324.879C218.468 324.879 226.491 323.647 226.491 322.127C226.491 320.607 218.468 319.375 208.572 319.375C198.676 319.375 190.653 320.607 190.653 322.127C190.653 323.647 198.676 324.879 208.572 324.879Z" fill="#04C2C9"/>
<path opacity="0.1" d="M262.247 308.381C272.143 308.381 280.165 307.149 280.165 305.629C280.165 304.11 272.143 302.878 262.247 302.878C252.35 302.878 244.328 304.11 244.328 305.629C244.328 307.149 252.35 308.381 262.247 308.381Z" fill="#04C2C9"/>
<path d="M459.58 274.374C459.58 274.374 462.595 278.32 458.186 284.273C453.776 290.226 450.143 295.262 451.633 298.954C451.633 298.954 458.281 287.897 463.698 287.743C469.116 287.588 465.533 281.013 459.58 274.374Z" fill="#04C2C9"/>
<path opacity="0.1" d="M459.58 274.374C459.842 274.756 460.05 275.173 460.197 275.614C465.478 281.817 468.294 287.611 463.212 287.756C458.485 287.888 452.809 296.348 451.451 298.482C451.497 298.647 451.551 298.809 451.615 298.968C451.615 298.968 458.263 287.911 463.68 287.756C469.098 287.602 465.533 281.013 459.58 274.374Z" fill="black"/>
<path d="M465.188 279.369C465.188 280.758 465.029 281.885 464.838 281.885C464.647 281.885 464.488 280.758 464.488 279.369C464.488 277.979 464.684 278.638 464.879 278.638C465.074 278.638 465.188 278.007 465.188 279.369Z" fill="#FFD037"/>
<path d="M467.109 281.045C465.892 281.712 464.838 282.112 464.738 281.953C464.638 281.794 465.56 281.108 466.777 280.445C467.994 279.782 467.517 280.264 467.608 280.445C467.699 280.627 468.33 280.382 467.109 281.045Z" fill="#FFD037"/>
<path d="M443.645 274.374C443.645 274.374 440.63 278.32 445.039 284.273C449.449 290.226 453.081 295.262 451.633 298.954C451.633 298.954 444.98 287.897 439.567 287.743C434.155 287.588 437.692 281.013 443.645 274.374Z" fill="#04C2C9"/>
<path opacity="0.1" d="M443.645 274.374C443.383 274.756 443.177 275.173 443.032 275.614C437.751 281.817 434.936 287.611 440.012 287.756C444.74 287.888 450.416 296.348 451.774 298.482C451.73 298.647 451.677 298.809 451.615 298.968C451.615 298.968 444.962 287.911 439.549 287.756C434.136 287.602 437.692 281.013 443.645 274.374Z" fill="black"/>
<path d="M438.042 279.369C438.042 280.758 438.196 281.885 438.387 281.885C438.578 281.885 438.736 280.758 438.736 279.369C438.736 277.979 438.541 278.638 438.35 278.638C438.16 278.638 438.042 278.007 438.042 279.369Z" fill="#FFD037"/>
<path d="M436.116 281.045C437.333 281.712 438.387 282.112 438.491 281.953C438.596 281.794 437.669 281.108 436.448 280.445C435.226 279.782 435.712 280.264 435.621 280.445C435.531 280.627 434.899 280.382 436.116 281.045Z" fill="#FFD037"/>
<path opacity="0.1" d="M451.615 329.129C469.032 329.129 483.152 326.962 483.152 324.288C483.152 321.615 469.032 319.448 451.615 319.448C434.197 319.448 420.078 321.615 420.078 324.288C420.078 326.962 434.197 329.129 451.615 329.129Z" fill="#04C2C9"/>
<path d="M467.844 293.641L467.694 294.872L467.481 296.611L467.395 297.338L467.181 299.077L467.09 299.803L466.881 301.543L464.466 321.323C464.252 323.09 461.364 324.465 457.881 324.465H445.344C441.861 324.465 438.986 323.103 438.764 321.323L436.348 301.543L436.134 299.803L436.048 299.077L435.83 297.338L435.739 296.625L435.531 294.885L435.376 293.655C435.258 292.656 436.816 291.811 438.786 291.811H464.434C466.405 291.798 467.98 292.642 467.844 293.641Z" fill="#65617D"/>
<path d="M467.694 294.872L467.481 296.607H435.744L435.535 294.872H467.694Z" fill="#9D9CB5"/>
<path d="M467.395 297.333L467.186 299.077H436.048L435.835 297.333H467.395Z" fill="#9D9CB5"/>
<path d="M467.09 299.799L466.882 301.538H436.348L436.139 299.799H467.09Z" fill="#9D9CB5"/>
<defs>
<linearGradient id="paint0_linear" x1="107.644" y1="323.053" x2="107.644" y2="17.6719" gradientUnits="userSpaceOnUse">
<stop stop-color="#808080" stop-opacity="0.25"/>
<stop offset="0.54" stop-color="#808080" stop-opacity="0.12"/>
<stop offset="1" stop-color="#808080" stop-opacity="0.1"/>
</linearGradient>
</defs>
</svg>
