<?xml version="1.0" standalone="no"?>
<!DOCTYPE svg PUBLIC "-//W3C//DTD SVG 20010904//EN"
 "http://www.w3.org/TR/2001/REC-SVG-20010904/DTD/svg10.dtd">
<svg version="1.0" xmlns="http://www.w3.org/2000/svg"
 width="1601.000000pt" height="1601.000000pt" viewBox="0 0 1601.000000 1601.000000"
 preserveAspectRatio="xMidYMid meet">
<metadata>
Created by potrace 1.11, written by Peter Selinger 2001-2013
</metadata>
<g transform="translate(0.000000,1601.000000) scale(0.100000,-0.100000)"
fill="#000000" stroke="none">
<path d="M7015 15970 c29 -165 29 -295 -1 -530 -150 -1168 -1186 -3932 -2827
-7540 -915 -2011 -1975 -4173 -2795 -5695 -686 -1275 -1158 -2028 -1367 -2184
l-30 -22 70 6 c39 3 246 21 460 40 1110 98 1754 129 2625 123 500 -2 518 -2
600 19 331 84 625 268 955 598 638 638 1313 1789 1935 3300 88 214 224 564
285 735 21 58 42 116 47 130 8 22 17 3 72 -150 168 -470 398 -939 673 -1375
556 -880 1351 -1735 2324 -2501 394 -310 876 -642 1244 -857 l120 -70 1347 5
1346 4 89 74 c124 103 489 471 615 620 1130 1340 1476 2893 981 4415 -338
1041 -1043 1836 -2068 2335 -604 294 -1383 502 -2050 550 -88 6 -184 14 -214
18 l-54 7 -695 1260 c-1025 1862 -2853 5185 -3220 5855 -491 899 -474 869
-467 830z m5352 -9700 c873 -68 1614 -750 1847 -1700 60 -247 71 -343 71 -635
0 -297 -13 -403 -75 -651 -158 -623 -531 -1136 -1049 -1441 -530 -313 -1192
-334 -1747 -55 -221 111 -378 227 -560 413 -352 362 -572 825 -656 1384 -21
141 -18 579 6 730 166 1078 935 1876 1883 1954 139 12 145 12 280 1z"/>
</g>
</svg>
