<svg id="Layer_1" data-name="Layer 1" xmlns="http://www.w3.org/2000/svg" viewBox="0 0 1920 1080"><defs><style>.cls-1{fill:#050505;}</style></defs><path class="cls-1" d="M1365.9,687.76C1321.72,536.91,1145,536.91,1145,536.91S951,185,925.26,137.17c29.61,81-312.22,786.39-350.23,800,12.8,0,89.51-10.53,172.38-8,93.26,5.59,176.71-241.43,176.71-241.43C973.21,844.19,1145,937.17,1145,937.17L1279.7,937S1410.07,838.6,1365.9,687.76ZM1186.73,858.15c-56.93,0-103.08-52.52-103.08-117.32S1129.8,623.5,1186.73,623.5,1289.81,676,1289.81,740.83,1243.65,858.15,1186.73,858.15Z"/></svg>